<?xml version="1.0" encoding="utf-8"?>
<!-- Generator: Adobe Illustrator 18.0.0, SVG Export Plug-In . SVG Version: 6.00 Build 0)  -->
<!DOCTYPE svg PUBLIC "-//W3C//DTD SVG 1.1//EN" "http://www.w3.org/Graphics/SVG/1.1/DTD/svg11.dtd">
<svg version="1.1" id="build_1" xmlns="http://www.w3.org/2000/svg" xmlns:xlink="http://www.w3.org/1999/xlink" x="0px" y="0px"
	 width="370px" height="344.9px" viewBox="0 0 370 344.9" enable-background="new 0 0 370 344.9" xml:space="preserve">
<g>
	<polygon fill="none" stroke="#3E95E9" stroke-width="2" stroke-linejoin="round" stroke-miterlimit="10" points="33,296.1 
		65,280.1 65,184.6 33,168.9 	"/>
	<polygon fill="none" stroke="#3E95E9" stroke-width="2" stroke-linejoin="round" stroke-miterlimit="10" points="17,288.1 
		17,160.4 33,168.9 33,296.1 	"/>
	<polygon fill="none" stroke="#3E95E9" stroke-width="2" stroke-linejoin="round" stroke-miterlimit="10" points="257,184.4 
		289,168.4 289,105.1 257,120.6 	"/>
	<polygon fill="none" stroke="#3E95E9" stroke-width="2" stroke-linejoin="round" stroke-miterlimit="10" points="241,176.4 
		241,128.5 257,120.6 257,184.4 	"/>
	<polygon fill="none" stroke="#3E95E9" stroke-width="2" stroke-linejoin="round" stroke-miterlimit="10" points="97,328 129,312 
		129,184.4 97,200.3 	"/>
	<polygon fill="none" stroke="#3E95E9" stroke-width="2" stroke-linejoin="round" stroke-miterlimit="10" points="81,320 81,192.4 
		97,200.3 97,328 	"/>
	<polygon fill="none" stroke="#3E95E9" stroke-width="2" stroke-linejoin="round" stroke-miterlimit="10" points="321,216.3 
		353,200.3 353,72.7 321,88.6 	"/>
	<polygon fill="none" stroke="#3E95E9" stroke-width="2" stroke-linejoin="round" stroke-miterlimit="10" points="305,208.3 
		305,96.6 321,88.6 321,216.3 	"/>
	<polygon fill="none" stroke="#3E95E9" stroke-width="2" stroke-linejoin="round" stroke-miterlimit="10" points="17,153 97,192.3 
		353,64.7 273,24.8 	"/>
	
		<line fill="none" stroke="#3E95E9" stroke-width="2" stroke-linejoin="round" stroke-miterlimit="10" x1="17" y1="153" x2="17" y2="160.4"/>
	
		<line fill="none" stroke="#3E95E9" stroke-width="2" stroke-linejoin="round" stroke-miterlimit="10" x1="97" y1="192.3" x2="97" y2="200.3"/>
	
		<line fill="none" stroke="#3E95E9" stroke-width="2" stroke-linejoin="round" stroke-miterlimit="10" x1="129" y1="184.4" x2="241" y2="128.5"/>
	
		<line fill="none" stroke="#3E95E9" stroke-width="2" stroke-linejoin="round" stroke-miterlimit="10" x1="289" y1="105.1" x2="305" y2="96.6"/>
	
		<line fill="none" stroke="#3E95E9" stroke-width="2" stroke-linejoin="round" stroke-miterlimit="10" x1="353" y1="64.7" x2="353" y2="72.7"/>
	<path fill="none" stroke="#3E95E9" stroke-width="2" stroke-linejoin="round" stroke-miterlimit="10" d="M129,312
		c0-49.7,26-140.6,96-174.6c48.8-23.7,86,31,96,78.9"/>
	
		<line fill="none" stroke="#3E95E9" stroke-width="2" stroke-linejoin="round" stroke-miterlimit="10" x1="97" y1="168.4" x2="353" y2="40.8"/>
	
		<line fill="none" stroke="#3E95E9" stroke-width="2" stroke-linejoin="round" stroke-miterlimit="10" x1="97" y1="168.4" x2="97" y2="192.3"/>
	
		<line fill="none" stroke="#3E95E9" stroke-width="2" stroke-linejoin="round" stroke-miterlimit="10" x1="353" y1="40.8" x2="353" y2="64.7"/>
	
		<line fill="none" stroke="#3E95E9" stroke-width="2" stroke-linejoin="round" stroke-miterlimit="10" x1="17" y1="153" x2="17" y2="128.5"/>
	
		<line fill="none" stroke="#3E95E9" stroke-width="2" stroke-linejoin="round" stroke-miterlimit="10" x1="17" y1="128.5" x2="273" y2="0.9"/>
	
		<line fill="none" stroke="#3E95E9" stroke-width="2" stroke-linejoin="round" stroke-miterlimit="10" x1="273" y1="0.9" x2="273" y2="24.8"/>
	
		<line fill="none" stroke="#3E95E9" stroke-width="2" stroke-linejoin="round" stroke-miterlimit="10" x1="33" y1="120.7" x2="33" y2="144.7"/>
	
		<line fill="none" stroke="#3E95E9" stroke-width="2" stroke-linejoin="round" stroke-miterlimit="10" x1="49" y1="112.6" x2="49" y2="136.5"/>
	
		<line fill="none" stroke="#3E95E9" stroke-width="2" stroke-linejoin="round" stroke-miterlimit="10" x1="65" y1="104.7" x2="65" y2="128.7"/>
	
		<line fill="none" stroke="#3E95E9" stroke-width="2" stroke-linejoin="round" stroke-miterlimit="10" x1="81" y1="96.7" x2="81" y2="120.7"/>
	
		<line fill="none" stroke="#3E95E9" stroke-width="2" stroke-linejoin="round" stroke-miterlimit="10" x1="97" y1="88.8" x2="97" y2="112.6"/>
	
		<line fill="none" stroke="#3E95E9" stroke-width="2" stroke-linejoin="round" stroke-miterlimit="10" x1="112.9" y1="80.7" x2="112.9" y2="104.6"/>
	
		<line fill="none" stroke="#3E95E9" stroke-width="2" stroke-linejoin="round" stroke-miterlimit="10" x1="129" y1="72.7" x2="129" y2="96.9"/>
	
		<line fill="none" stroke="#3E95E9" stroke-width="2" stroke-linejoin="round" stroke-miterlimit="10" x1="145.1" y1="64.7" x2="145.1" y2="88.6"/>
	
		<line fill="none" stroke="#3E95E9" stroke-width="2" stroke-linejoin="round" stroke-miterlimit="10" x1="160.9" y1="56.8" x2="160.9" y2="80.7"/>
	
		<line fill="none" stroke="#3E95E9" stroke-width="2" stroke-linejoin="round" stroke-miterlimit="10" x1="177" y1="48.8" x2="177" y2="73.5"/>
	
		<line fill="none" stroke="#3E95E9" stroke-width="2" stroke-linejoin="round" stroke-miterlimit="10" x1="193" y1="40.8" x2="193" y2="64.7"/>
	
		<line fill="none" stroke="#3E95E9" stroke-width="2" stroke-linejoin="round" stroke-miterlimit="10" x1="209" y1="32.8" x2="209" y2="56.7"/>
	
		<line fill="none" stroke="#3E95E9" stroke-width="2" stroke-linejoin="round" stroke-miterlimit="10" x1="225.5" y1="24.8" x2="225.5" y2="48.8"/>
	
		<line fill="none" stroke="#3E95E9" stroke-width="2" stroke-linejoin="round" stroke-miterlimit="10" x1="241" y1="16.8" x2="241" y2="40.8"/>
	
		<line fill="none" stroke="#3E95E9" stroke-width="2" stroke-linejoin="round" stroke-miterlimit="10" x1="257" y1="8.9" x2="257" y2="32.8"/>
	
		<line fill="none" stroke="#3E95E9" stroke-width="2" stroke-linejoin="round" stroke-miterlimit="10" x1="113" y1="160.6" x2="113" y2="184.6"/>
	
		<line fill="none" stroke="#3E95E9" stroke-width="2" stroke-linejoin="round" stroke-miterlimit="10" x1="129" y1="152.4" x2="129" y2="176.4"/>
	
		<line fill="none" stroke="#3E95E9" stroke-width="2" stroke-linejoin="round" stroke-miterlimit="10" x1="145" y1="144.5" x2="145" y2="168.5"/>
	
		<line fill="none" stroke="#3E95E9" stroke-width="2" stroke-linejoin="round" stroke-miterlimit="10" x1="161" y1="136.5" x2="161" y2="160.6"/>
	
		<line fill="none" stroke="#3E95E9" stroke-width="2" stroke-linejoin="round" stroke-miterlimit="10" x1="177" y1="128.6" x2="177" y2="152.4"/>
	
		<line fill="none" stroke="#3E95E9" stroke-width="2" stroke-linejoin="round" stroke-miterlimit="10" x1="192.9" y1="120.6" x2="192.9" y2="144.5"/>
	
		<line fill="none" stroke="#3E95E9" stroke-width="2" stroke-linejoin="round" stroke-miterlimit="10" x1="209" y1="112.5" x2="209" y2="136.8"/>
	
		<line fill="none" stroke="#3E95E9" stroke-width="2" stroke-linejoin="round" stroke-miterlimit="10" x1="225.1" y1="104.5" x2="225.1" y2="128.5"/>
	
		<line fill="none" stroke="#3E95E9" stroke-width="2" stroke-linejoin="round" stroke-miterlimit="10" x1="240.9" y1="96.6" x2="240.9" y2="120.5"/>
	
		<line fill="none" stroke="#3E95E9" stroke-width="2" stroke-linejoin="round" stroke-miterlimit="10" x1="257" y1="88.6" x2="257" y2="113.4"/>
	
		<line fill="none" stroke="#3E95E9" stroke-width="2" stroke-linejoin="round" stroke-miterlimit="10" x1="273" y1="80.6" x2="273" y2="104.6"/>
	
		<line fill="none" stroke="#3E95E9" stroke-width="2" stroke-linejoin="round" stroke-miterlimit="10" x1="289" y1="72.7" x2="289" y2="96.6"/>
	
		<line fill="none" stroke="#3E95E9" stroke-width="2" stroke-linejoin="round" stroke-miterlimit="10" x1="305.5" y1="64.7" x2="305.5" y2="88.6"/>
	
		<line fill="none" stroke="#3E95E9" stroke-width="2" stroke-linejoin="round" stroke-miterlimit="10" x1="321" y1="56.7" x2="321" y2="80.7"/>
	
		<line fill="none" stroke="#3E95E9" stroke-width="2" stroke-linejoin="round" stroke-miterlimit="10" x1="337" y1="48.7" x2="337" y2="72.7"/>
	<polyline fill="none" stroke="#3E95E9" stroke-width="2" stroke-linejoin="round" stroke-miterlimit="10" points="17,280.1 
		1.1,288.1 33,304 81,280.1 65,272.1 	"/>
	<polyline fill="none" stroke="#3E95E9" stroke-width="2" stroke-linejoin="round" stroke-miterlimit="10" points="1.1,288.1 
		1,296.1 33,312 80.9,288.1 	"/>
	
		<line fill="none" stroke="#3E95E9" stroke-width="2" stroke-linejoin="round" stroke-miterlimit="10" x1="33" y1="304" x2="33" y2="312"/>
	<polyline fill="none" stroke="#3E95E9" stroke-width="2" stroke-linejoin="round" stroke-miterlimit="10" points="80.9,312 65,320 
		97,335.9 145,312 129,304 	"/>
	<polyline fill="none" stroke="#3E95E9" stroke-width="2" stroke-linejoin="round" stroke-miterlimit="10" points="65,320 65,328 
		97,343.9 145,320 145,312 	"/>
	
		<line fill="none" stroke="#3E95E9" stroke-width="2" stroke-linejoin="round" stroke-miterlimit="10" x1="97" y1="335.9" x2="97" y2="343.9"/>
	<polyline fill="none" stroke="#3E95E9" stroke-width="2" stroke-linejoin="round" stroke-miterlimit="10" points="240.9,168.4 
		225.1,176.4 257,192.4 305,168.5 289,160.4 	"/>
	
		<line fill="none" stroke="#3E95E9" stroke-width="2" stroke-linejoin="round" stroke-miterlimit="10" x1="257" y1="192.4" x2="257" y2="200.3"/>
	<polyline fill="none" stroke="#3E95E9" stroke-width="2" stroke-linejoin="round" stroke-miterlimit="10" points="305,200.3 
		289,208.3 321,224.3 369,200.3 353,192.4 	"/>
	<polyline fill="none" stroke="#3E95E9" stroke-width="2" stroke-linejoin="round" stroke-miterlimit="10" points="289,208.3 
		289,216.3 321,232.2 369,208.3 369,200.3 	"/>
	
		<line fill="none" stroke="#3E95E9" stroke-width="2" stroke-linejoin="round" stroke-miterlimit="10" x1="321" y1="224.3" x2="321" y2="232.2"/>
	<polyline fill="none" stroke="#3E95E9" stroke-width="2" stroke-linejoin="round" stroke-miterlimit="10" points="304.9,112.5 
		321,120.6 353,104.6 	"/>
	<polyline fill="none" stroke="#3E95E9" stroke-width="2" stroke-linejoin="round" stroke-miterlimit="10" points="305.5,144.5 
		321,152.5 352.5,136.8 	"/>
	<polyline fill="none" stroke="#3E95E9" stroke-width="2" stroke-linejoin="round" stroke-miterlimit="10" points="352.5,168.2 
		321,184.4 305.5,176.6 257,200.3 225,184.4 225.1,176.4 	"/>
	
		<line fill="none" stroke="#3E95E9" stroke-width="2" stroke-linejoin="round" stroke-miterlimit="10" x1="240.5" y1="144.7" x2="257" y2="152.5"/>
	
		<line fill="none" stroke="#3E95E9" stroke-width="2" stroke-linejoin="round" stroke-miterlimit="10" x1="257" y1="152.5" x2="289.5" y2="136.8"/>
	<path fill="none" stroke="#3E95E9" stroke-width="2" stroke-linejoin="round" stroke-miterlimit="10" d="M228.2,135.4
		c7.8,12.6,12.8,26.7,12.8,41"/>
	<path fill="none" stroke="#3E95E9" stroke-width="2" stroke-linejoin="round" stroke-miterlimit="10" d="M65,206.4
		c2.2-6.1,4.7-12.4,7.3-18.7"/>
	<polyline fill="none" stroke="#3E95E9" stroke-width="2" stroke-linejoin="round" stroke-miterlimit="10" points="17,256.2 
		32.9,264.1 65,248.2 	"/>
	<polyline fill="none" stroke="#3E95E9" stroke-width="2" stroke-linejoin="round" stroke-miterlimit="10" points="17,224.3 
		33.4,232.5 65,216.3 	"/>
	<polyline fill="none" stroke="#3E95E9" stroke-width="2" stroke-linejoin="round" stroke-miterlimit="10" points="17,192.4 
		32.9,200.4 65,184.6 81,192.4 	"/>
	
		<line fill="none" stroke="#3E95E9" stroke-width="2" stroke-linejoin="round" stroke-miterlimit="10" x1="80.9" y1="288.1" x2="97.7" y2="296.1"/>
	
		<line fill="none" stroke="#3E95E9" stroke-width="2" stroke-linejoin="round" stroke-miterlimit="10" x1="97.7" y1="296.1" x2="129" y2="280.1"/>
	
		<line fill="none" stroke="#3E95E9" stroke-width="2" stroke-linejoin="round" stroke-miterlimit="10" x1="80.9" y1="256.1" x2="97.1" y2="264.1"/>
	
		<line fill="none" stroke="#3E95E9" stroke-width="2" stroke-linejoin="round" stroke-miterlimit="10" x1="97.1" y1="264.1" x2="129" y2="248.2"/>
	
		<line fill="none" stroke="#3E95E9" stroke-width="2" stroke-linejoin="round" stroke-miterlimit="10" x1="81" y1="224.4" x2="97.4" y2="232.5"/>
	
		<line fill="none" stroke="#3E95E9" stroke-width="2" stroke-linejoin="round" stroke-miterlimit="10" x1="97.4" y1="232.5" x2="129" y2="216.3"/>
	
		<line fill="none" stroke="#3E95E9" stroke-width="2" stroke-linejoin="round" stroke-miterlimit="10" x1="33" y1="296.1" x2="65" y2="248.2"/>
	
		<line fill="none" stroke="#3E95E9" stroke-width="2" stroke-linejoin="round" stroke-miterlimit="10" x1="65" y1="248.2" x2="33.4" y2="232.5"/>
	
		<line fill="none" stroke="#3E95E9" stroke-width="2" stroke-linejoin="round" stroke-miterlimit="10" x1="33.4" y1="232.5" x2="65" y2="184.6"/>
	
		<line fill="none" stroke="#3E95E9" stroke-width="2" stroke-linejoin="round" stroke-miterlimit="10" x1="49.2" y1="176.8" x2="32.9" y2="200.4"/>
	
		<line fill="none" stroke="#3E95E9" stroke-width="2" stroke-linejoin="round" stroke-miterlimit="10" x1="32.9" y1="200.4" x2="65" y2="216.3"/>
	
		<line fill="none" stroke="#3E95E9" stroke-width="2" stroke-linejoin="round" stroke-miterlimit="10" x1="65" y1="216.3" x2="32.9" y2="264.1"/>
	
		<line fill="none" stroke="#3E95E9" stroke-width="2" stroke-linejoin="round" stroke-miterlimit="10" x1="32.9" y1="264.1" x2="65" y2="280.1"/>
	
		<line fill="none" stroke="#3E95E9" stroke-width="2" stroke-linejoin="round" stroke-miterlimit="10" x1="129" y1="184.4" x2="97.4" y2="232.5"/>
	
		<line fill="none" stroke="#3E95E9" stroke-width="2" stroke-linejoin="round" stroke-miterlimit="10" x1="97.4" y1="232.5" x2="129" y2="248.2"/>
	
		<line fill="none" stroke="#3E95E9" stroke-width="2" stroke-linejoin="round" stroke-miterlimit="10" x1="129" y1="248.2" x2="97.7" y2="296.1"/>
	
		<line fill="none" stroke="#3E95E9" stroke-width="2" stroke-linejoin="round" stroke-miterlimit="10" x1="97.7" y1="296.1" x2="129" y2="312"/>
	
		<line fill="none" stroke="#3E95E9" stroke-width="2" stroke-linejoin="round" stroke-miterlimit="10" x1="97" y1="328" x2="129" y2="280.1"/>
	
		<line fill="none" stroke="#3E95E9" stroke-width="2" stroke-linejoin="round" stroke-miterlimit="10" x1="129" y1="280.1" x2="97.1" y2="264.1"/>
	
		<line fill="none" stroke="#3E95E9" stroke-width="2" stroke-linejoin="round" stroke-miterlimit="10" x1="97.1" y1="264.1" x2="129" y2="216.3"/>
	
		<line fill="none" stroke="#3E95E9" stroke-width="2" stroke-linejoin="round" stroke-miterlimit="10" x1="129" y1="216.3" x2="97" y2="200.3"/>
	
		<line fill="none" stroke="#3E95E9" stroke-width="2" stroke-linejoin="round" stroke-miterlimit="10" x1="321" y1="216.3" x2="352.5" y2="168.2"/>
	
		<line fill="none" stroke="#3E95E9" stroke-width="2" stroke-linejoin="round" stroke-miterlimit="10" x1="352.5" y1="168.2" x2="321" y2="152.5"/>
	
		<line fill="none" stroke="#3E95E9" stroke-width="2" stroke-linejoin="round" stroke-miterlimit="10" x1="321" y1="152.5" x2="353" y2="104.6"/>
	
		<line fill="none" stroke="#3E95E9" stroke-width="2" stroke-linejoin="round" stroke-miterlimit="10" x1="353" y1="104.6" x2="321" y2="88.6"/>
	
		<line fill="none" stroke="#3E95E9" stroke-width="2" stroke-linejoin="round" stroke-miterlimit="10" x1="353" y1="72.7" x2="321" y2="120.6"/>
	
		<line fill="none" stroke="#3E95E9" stroke-width="2" stroke-linejoin="round" stroke-miterlimit="10" x1="321" y1="120.6" x2="352.5" y2="136.8"/>
	
		<line fill="none" stroke="#3E95E9" stroke-width="2" stroke-linejoin="round" stroke-miterlimit="10" x1="352.5" y1="136.8" x2="321" y2="184.4"/>
	
		<line fill="none" stroke="#3E95E9" stroke-width="2" stroke-linejoin="round" stroke-miterlimit="10" x1="321" y1="184.4" x2="353" y2="200.3"/>
	
		<line fill="none" stroke="#3E95E9" stroke-width="2" stroke-linejoin="round" stroke-miterlimit="10" x1="257" y1="184.4" x2="289.5" y2="136.8"/>
	
		<line fill="none" stroke="#3E95E9" stroke-width="2" stroke-linejoin="round" stroke-miterlimit="10" x1="289.5" y1="136.8" x2="257" y2="120.6"/>
	
		<line fill="none" stroke="#3E95E9" stroke-width="2" stroke-linejoin="round" stroke-miterlimit="10" x1="289" y1="105.1" x2="257" y2="152.5"/>
	
		<line fill="none" stroke="#3E95E9" stroke-width="2" stroke-linejoin="round" stroke-miterlimit="10" x1="257" y1="152.5" x2="289" y2="168.4"/>
	
		<line fill="none" stroke="#3E95E9" stroke-width="2" stroke-linejoin="round" stroke-miterlimit="10" x1="129" y1="248.2" x2="141.6" y2="241.9"/>
	
		<line fill="none" stroke="#3E95E9" stroke-width="2" stroke-linejoin="round" stroke-miterlimit="10" x1="129" y1="216.3" x2="161" y2="200.4"/>
	
		<line fill="none" stroke="#3E95E9" stroke-width="2" stroke-linejoin="round" stroke-miterlimit="10" x1="298.8" y1="163.6" x2="321" y2="152.5"/>
	
		<line fill="none" stroke="#3E95E9" stroke-width="2" stroke-linejoin="round" stroke-miterlimit="10" x1="278.4" y1="142.1" x2="321" y2="120.6"/>
	
		<line fill="none" stroke="#3E95E9" stroke-width="2" stroke-linejoin="round" stroke-miterlimit="10" x1="160.8" y1="168.5" x2="161" y2="199.2"/>
	
		<line fill="none" stroke="#3E95E9" stroke-width="2" stroke-linejoin="round" stroke-miterlimit="10" x1="129" y1="216.3" x2="160.8" y2="168.5"/>
	
		<line fill="none" stroke="#3E95E9" stroke-width="2" stroke-linejoin="round" stroke-miterlimit="10" x1="129" y1="184.4" x2="161" y2="200.4"/>
	
		<line fill="none" stroke="#3E95E9" stroke-width="2" stroke-linejoin="round" stroke-miterlimit="10" x1="129" y1="216.3" x2="147.7" y2="225.6"/>
	
		<line fill="none" stroke="#3E95E9" stroke-width="2" stroke-linejoin="round" stroke-miterlimit="10" x1="160.8" y1="168.5" x2="177.1" y2="176.4"/>
	
		<line fill="none" stroke="#3E95E9" stroke-width="2" stroke-linejoin="round" stroke-miterlimit="10" x1="40.2" y1="164.4" x2="297" y2="36.8"/>
	
		<line fill="none" stroke="#3E95E9" stroke-width="2" stroke-linejoin="round" stroke-miterlimit="10" x1="73" y1="180.5" x2="97" y2="168.4"/>
</g>
</svg>
