<?xml version="1.0" encoding="utf-8"?>
<!-- Generator: Adobe Illustrator 18.0.0, SVG Export Plug-In . SVG Version: 6.00 Build 0)  -->
<!DOCTYPE svg PUBLIC "-//W3C//DTD SVG 1.1//EN" "http://www.w3.org/Graphics/SVG/1.1/DTD/svg11.dtd">
<svg version="1.1" xmlns="http://www.w3.org/2000/svg" xmlns:xlink="http://www.w3.org/1999/xlink" x="0px" y="0px"
	 viewBox="-453.7 -90 267 232" enable-background="new -453.7 -90 267 232" xml:space="preserve" id="build_2">
<g>
	<g>
		<path fill="none" stroke="#3E95E9" stroke-width="2" stroke-linecap="round" stroke-linejoin="round" stroke-miterlimit="10" d="
			M-260.7-19.5l53-26.5v13.3l-53,26.5V-19.5z"/>
		<path fill="none" stroke="#3E95E9" stroke-width="2" stroke-linecap="round" stroke-linejoin="round" stroke-miterlimit="10" d="
			M-446.1,80.9V-32.7L-333.6-89l13.7,6.8"/>
		<path fill="none" stroke="#3E95E9" stroke-width="2" stroke-linecap="round" stroke-linejoin="round" stroke-miterlimit="10" d="
			M-333.8-35.5V91"/>
		<path fill="none" stroke="#3E95E9" stroke-width="2" stroke-linecap="round" stroke-linejoin="round" stroke-miterlimit="10" d="
			M-260.7,127.4V0.7l65.9-32.7l0,126.4"/>
		
			<polyline fill="none" stroke="#3E95E9" stroke-width="2" stroke-linecap="round" stroke-linejoin="round" stroke-miterlimit="10" points="
			-379.8,114 -379.8,-12.5 -333.8,-35.5 -260.7,0.7 		"/>
		
			<line fill="none" stroke="#3E95E9" stroke-width="2" stroke-linecap="round" stroke-linejoin="round" stroke-miterlimit="10" x1="-207.7" y1="-38.5" x2="-194.8" y2="-32"/>
		
			<polyline fill="none" stroke="#3E95E9" stroke-width="2" stroke-linecap="round" stroke-linejoin="round" stroke-miterlimit="10" points="
			-419.6,-32.3 -307.6,-88.4 -277.4,-73.3 		"/>
		
			<polygon fill="none" stroke="#3E95E9" stroke-width="2" stroke-linecap="round" stroke-linejoin="round" stroke-miterlimit="10" points="
			-260.7,-19.5 -313.8,-46 -313.8,-32.6 -260.7,-6.2 		"/>
		
			<line fill="none" stroke="#3E95E9" stroke-width="2" stroke-linecap="round" stroke-linejoin="round" stroke-miterlimit="10" x1="-221.2" y1="-52.7" x2="-207.7" y2="-46"/>
		
			<line fill="none" stroke="#3E95E9" stroke-width="2" stroke-linecap="round" stroke-linejoin="round" stroke-miterlimit="10" x1="-313.6" y1="-46" x2="-300.3" y2="-52.7"/>
		<path fill="none" stroke="#3E95E9" stroke-width="2" stroke-linecap="round" stroke-linejoin="round" stroke-miterlimit="10" d="
			M-260.7-39.5l39.5-19.8v13.5L-260.7-26V-39.5z"/>
		
			<polygon fill="none" stroke="#3E95E9" stroke-width="2" stroke-linecap="round" stroke-linejoin="round" stroke-miterlimit="10" points="
			-260.7,-39.5 -300.3,-59.4 -300.3,-45.8 -260.7,-26 		"/>
		
			<line fill="none" stroke="#3E95E9" stroke-width="2" stroke-linecap="round" stroke-linejoin="round" stroke-miterlimit="10" x1="-234.2" y1="-65.8" x2="-221.2" y2="-59.3"/>
		
			<line fill="none" stroke="#3E95E9" stroke-width="2" stroke-linecap="round" stroke-linejoin="round" stroke-miterlimit="10" x1="-300.3" y1="-59.4" x2="-287.2" y2="-65.8"/>
		<path fill="none" stroke="#3E95E9" stroke-width="2" stroke-linecap="round" stroke-linejoin="round" stroke-miterlimit="10" d="
			M-260.7-55.2l26.5-13.2v9l-26.5,13.2V-55.2z"/>
		
			<polygon fill="none" stroke="#3E95E9" stroke-width="2" stroke-linecap="round" stroke-linejoin="round" stroke-miterlimit="10" points="
			-260.7,-55.2 -287.2,-68.4 -287.2,-59.4 -260.7,-46.1 		"/>
		
			<polyline fill="none" stroke="#3E95E9" stroke-width="2" stroke-linecap="round" stroke-linejoin="round" stroke-miterlimit="10" points="
			-287.2,-68.4 -260.7,-81.7 -234.2,-68.4 		"/>
		
			<polyline fill="none" stroke="#3E95E9" stroke-width="2" stroke-linecap="round" stroke-linejoin="round" stroke-miterlimit="10" points="
			-446.1,-32.7 -419.5,-19.5 -419.5,-19.6 -419.6,-32.3 -379.8,-12.5 		"/>
		
			<polyline fill="none" stroke="#3E95E9" stroke-width="2" stroke-linecap="round" stroke-linejoin="round" stroke-miterlimit="10" points="
			-419.5,-26.2 -432.7,-32.7 -333.8,-82.2 -326.8,-78.7 		"/>
	</g>
	<g>
		<path fill="none" stroke="#3E95E9" stroke-width="2" stroke-linecap="round" stroke-linejoin="round" stroke-miterlimit="10" d="
			M-340.2,80.4l-13.2,6.6v-99.8l13.2-6.6V80.4z"/>
		<path fill="none" stroke="#3E95E9" stroke-width="2" stroke-linecap="round" stroke-linejoin="round" stroke-miterlimit="10" d="
			M-326.8-19.2l13.2,6.6v99.8l-13.2-6.6L-326.8-19.2z"/>
		<path fill="none" stroke="#3E95E9" stroke-width="2" stroke-linecap="round" stroke-linejoin="round" stroke-miterlimit="10" d="
			M-360,90.2l-13.2,6.6V-3l13.2-6.6V90.2z"/>
		<path fill="none" stroke="#3E95E9" stroke-width="2" stroke-linecap="round" stroke-linejoin="round" stroke-miterlimit="10" d="
			M-307-9.3l19.9,9.9v6.8l-19.9-10V-9.3z"/>
		<path fill="none" stroke="#3E95E9" stroke-width="2" stroke-linecap="round" stroke-linejoin="round" stroke-miterlimit="10" d="
			M-307,4l19.9,9.9v6.8l-19.9-10V4z"/>
		<path fill="none" stroke="#3E95E9" stroke-width="2" stroke-linecap="round" stroke-linejoin="round" stroke-miterlimit="10" d="
			M-307,17.3l19.9,9.9V34L-307,24V17.3z"/>
		<path fill="none" stroke="#3E95E9" stroke-width="2" stroke-linecap="round" stroke-linejoin="round" stroke-miterlimit="10" d="
			M-307,30.6l19.9,9.9v6.8l-19.9-10V30.6z"/>
		<path fill="none" stroke="#3E95E9" stroke-width="2" stroke-linecap="round" stroke-linejoin="round" stroke-miterlimit="10" d="
			M-307,43.9l19.9,9.9v6.8l-19.9-10V43.9z"/>
		<path fill="none" stroke="#3E95E9" stroke-width="2" stroke-linecap="round" stroke-linejoin="round" stroke-miterlimit="10" d="
			M-307,57.2l19.9,9.9v6.8l-19.9-10V57.2z"/>
		<path fill="none" stroke="#3E95E9" stroke-width="2" stroke-linecap="round" stroke-linejoin="round" stroke-miterlimit="10" d="
			M-307,70.5l19.9,9.9v6.8l-19.9-10V70.5z"/>
		<path fill="none" stroke="#3E95E9" stroke-width="2" stroke-linecap="round" stroke-linejoin="round" stroke-miterlimit="10" d="
			M-307,83.8l19.9,9.9v6.8l-19.9-10V83.8z"/>
		<path fill="none" stroke="#3E95E9" stroke-width="2" stroke-linecap="round" stroke-linejoin="round" stroke-miterlimit="10" d="
			M-280.4,4l13.2,6.6v99.8l-13.2-6.6V4z"/>
		
			<polygon fill="none" stroke="#3E95E9" stroke-width="2" stroke-linecap="round" stroke-linejoin="round" stroke-miterlimit="10" points="
			-254,97 -254,110.3 -240.7,103.6 -240.7,90.3 		"/>
		
			<polygon fill="none" stroke="#3E95E9" stroke-width="2" stroke-linecap="round" stroke-linejoin="round" stroke-miterlimit="10" points="
			-234.1,87 -234.1,100.4 -220.8,93.7 -220.8,80.4 		"/>
		
			<polygon fill="none" stroke="#3E95E9" stroke-width="2" stroke-linecap="round" stroke-linejoin="round" stroke-miterlimit="10" points="
			-214.3,77.1 -214.3,90.4 -201,83.8 -201,70.4 		"/>
		
			<polygon fill="none" stroke="#3E95E9" stroke-width="2" stroke-linecap="round" stroke-linejoin="round" stroke-miterlimit="10" points="
			-254,75.4 -254,88.7 -240.7,82.1 -240.7,68.7 		"/>
		
			<polygon fill="none" stroke="#3E95E9" stroke-width="2" stroke-linecap="round" stroke-linejoin="round" stroke-miterlimit="10" points="
			-234.1,65.4 -234.1,78.8 -220.8,72.1 -220.8,58.8 		"/>
		
			<polygon fill="none" stroke="#3E95E9" stroke-width="2" stroke-linecap="round" stroke-linejoin="round" stroke-miterlimit="10" points="
			-214.3,55.5 -214.3,68.9 -201,62.2 -201,48.9 		"/>
		
			<polygon fill="none" stroke="#3E95E9" stroke-width="2" stroke-linecap="round" stroke-linejoin="round" stroke-miterlimit="10" points="
			-254,53.8 -254,67.1 -240.7,60.5 -240.7,47.1 		"/>
		
			<polygon fill="none" stroke="#3E95E9" stroke-width="2" stroke-linecap="round" stroke-linejoin="round" stroke-miterlimit="10" points="
			-234.1,43.8 -234.1,57.2 -220.8,50.6 -220.8,37.2 		"/>
		
			<polygon fill="none" stroke="#3E95E9" stroke-width="2" stroke-linecap="round" stroke-linejoin="round" stroke-miterlimit="10" points="
			-214.3,33.9 -214.3,47.3 -201,40.6 -201,27.3 		"/>
		
			<polygon fill="none" stroke="#3E95E9" stroke-width="2" stroke-linecap="round" stroke-linejoin="round" stroke-miterlimit="10" points="
			-254,32.2 -254,45.5 -240.7,38.9 -240.7,25.6 		"/>
		
			<polygon fill="none" stroke="#3E95E9" stroke-width="2" stroke-linecap="round" stroke-linejoin="round" stroke-miterlimit="10" points="
			-234.1,22.3 -234.1,35.6 -220.8,29 -220.8,15.6 		"/>
		
			<polygon fill="none" stroke="#3E95E9" stroke-width="2" stroke-linecap="round" stroke-linejoin="round" stroke-miterlimit="10" points="
			-214.3,12.3 -214.3,25.7 -201,19 -201,5.7 		"/>
		
			<polygon fill="none" stroke="#3E95E9" stroke-width="2" stroke-linecap="round" stroke-linejoin="round" stroke-miterlimit="10" points="
			-254,10.6 -254,24 -240.7,17.3 -240.7,4 		"/>
		
			<polygon fill="none" stroke="#3E95E9" stroke-width="2" stroke-linecap="round" stroke-linejoin="round" stroke-miterlimit="10" points="
			-234.1,0.7 -234.1,14 -220.8,7.4 -220.8,-6 		"/>
		
			<polygon fill="none" stroke="#3E95E9" stroke-width="2" stroke-linecap="round" stroke-linejoin="round" stroke-miterlimit="10" points="
			-214.3,-9.3 -214.3,4.1 -201,-2.5 -201,-15.9 		"/>
		
			<polygon fill="none" stroke="#3E95E9" stroke-width="2" stroke-linecap="round" stroke-linejoin="round" stroke-miterlimit="10" points="
			-432.8,-12.8 -432.8,22.9 -419.6,29.5 -419.6,-6.2 		"/>
		
			<polygon fill="none" stroke="#3E95E9" stroke-width="2" stroke-linecap="round" stroke-linejoin="round" stroke-miterlimit="10" points="
			-406.3,0.4 -406.3,36.2 -393.1,42.8 -393.1,7 		"/>
		
			<polygon fill="none" stroke="#3E95E9" stroke-width="2" stroke-linecap="round" stroke-linejoin="round" stroke-miterlimit="10" points="
			-432.8,37.9 -432.8,73.7 -419.6,80.3 -419.6,44.5 		"/>
		
			<polygon fill="none" stroke="#3E95E9" stroke-width="2" stroke-linecap="round" stroke-linejoin="round" stroke-miterlimit="10" points="
			-406.3,51.1 -406.3,86.9 -393.1,93.5 -393.1,57.7 		"/>
	</g>
	<g>
		<path fill="none" stroke="#3E95E9" stroke-width="2" stroke-linecap="round" stroke-linejoin="round" stroke-miterlimit="10" d="
			M-333.8,97.9v6.6"/>
		
			<line fill="none" stroke="#3E95E9" stroke-width="2" stroke-linecap="round" stroke-linejoin="round" stroke-miterlimit="10" x1="-379.7" y1="120.8" x2="-379.7" y2="127.5"/>
		<path fill="none" stroke="#3E95E9" stroke-width="2" stroke-linecap="round" stroke-linejoin="round" stroke-miterlimit="10" d="
			M-260.7,141l73-36.5v-6.6l-73,36.5V141l-73.1-36.5l-45.9,23l-73-36.4v-6.7l73,36.5l45.9-22.9l73.1,36.5"/>
		
			<polyline fill="none" stroke="#3E95E9" stroke-width="2" stroke-linecap="round" stroke-linejoin="round" stroke-miterlimit="10" points="
			-452.7,84.4 -446.1,80.9 -379.8,114 -333.8,91 -260.7,127.4 -194.8,94.3 -187.7,97.9 		"/>
	</g>
</g>
</svg>
