<?xml version="1.0" encoding="utf-8"?>
<!-- Generator: Adobe Illustrator 16.0.0, SVG Export Plug-In . SVG Version: 6.00 Build 0)  -->
<!DOCTYPE svg PUBLIC "-//W3C//DTD SVG 1.1//EN" "http://www.w3.org/Graphics/SVG/1.1/DTD/svg11.dtd">
<svg version="1.1" id="build_1" xmlns="http://www.w3.org/2000/svg" xmlns:xlink="http://www.w3.org/1999/xlink" x="0px"
	 y="0px" width="250.5px" height="379.4px" viewBox="228.6 211.4 250.5 379.4" enable-background="new 228.6 211.4 250.5 379.4"
	 xml:space="preserve">
<polyline fill="none" stroke="#3E95E9" stroke-width="5" stroke-linecap="round" stroke-miterlimit="10" points="278.1,379.8 
	231.1,402.8 231.1,552.5 306.6,588 476.7,505.5 476.5,355.2 431.5,332 431.2,225.6 408.2,214.2 278.1,278 278.1,379.9 "/>
<polyline fill="none" stroke="#3E95E9" stroke-width="2" stroke-miterlimit="10" points="303.9,588 303.9,438.4 474.6,354.8 "/>
<line fill="none" stroke="#3E95E9" stroke-width="2" stroke-miterlimit="10" x1="231.1" y1="402.8" x2="303.9" y2="438.4"/>
<polyline fill="none" stroke="#3E95E9" stroke-width="2" stroke-miterlimit="10" points="279.5,379.1 279.5,406.5 300.4,416.6 
	321.2,406.5 321.2,306.4 411.7,261.3 411.7,362.6 "/>
<polyline fill="none" stroke="#3E95E9" stroke-width="2" stroke-miterlimit="10" points="279.5,279.3 300.4,289.5 300.4,416.6 "/>
<polyline fill="none" stroke="#3E95E9" stroke-width="2" stroke-miterlimit="10" points="388.8,273.5 388.8,354 408.4,363.8 
	429.7,353.4 429.8,332.4 "/>
<line fill="none" stroke="#3E95E9" stroke-width="5" stroke-miterlimit="10" x1="321.2" y1="358.8" x2="388.8" y2="325.3"/>
<line fill="none" stroke="#3E95E9" stroke-width="2" stroke-miterlimit="10" x1="300.4" y1="289.5" x2="428.6" y2="226.7"/>
<line fill="none" stroke="#3E95E9" stroke-width="2" stroke-miterlimit="10" x1="385.9" y1="466.1" x2="403.3" y2="474.8"/>
<polyline fill="none" stroke="#3E95E9" stroke-width="2" stroke-linejoin="round" stroke-miterlimit="10" points="397.6,477.6 
	379.6,468.9 385.9,466.1 385.9,453.7 "/>
<line fill="none" stroke="#3E95E9" stroke-width="2" stroke-miterlimit="10" x1="385.6" y1="500.4" x2="396.8" y2="505.8"/>
<polyline fill="none" stroke="#3E95E9" stroke-width="2" stroke-miterlimit="10" points="379.6,480.8 385.5,483.6 385.8,512.3 
	397.6,506.6 397.6,477.5 403.3,474.8 403.3,445.1 379.6,456.6 379.6,486.3 385.5,483.6 "/>
</svg>
