<?xml version="1.0" encoding="utf-8"?>
<!-- Generator: Adobe Illustrator 16.0.0, SVG Export Plug-In . SVG Version: 6.00 Build 0)  -->
<!DOCTYPE svg PUBLIC "-//W3C//DTD SVG 1.1//EN" "http://www.w3.org/Graphics/SVG/1.1/DTD/svg11.dtd">
<svg version="1.1" id="build_2" xmlns="http://www.w3.org/2000/svg" xmlns:xlink="http://www.w3.org/1999/xlink" x="0px"
	 y="0px" width="312px" height="276px" viewBox="566 -134 312 276" enable-background="new 566 -134 312 276" xml:space="preserve">
<g>
	<polygon fill="none" stroke="#3E95E9" stroke-width="2" stroke-linejoin="round" stroke-miterlimit="10" points="589.1,15.7 
		589.1,30.5 611.2,41.6 611.2,26.8 	"/>
	<polygon fill="none" stroke="#3E95E9" stroke-width="2" stroke-linejoin="round" stroke-miterlimit="10" points="618.6,30.4 
		618.6,45.2 640.7,56.3 640.7,41.4 	"/>
	<polygon fill="none" stroke="#3E95E9" stroke-width="2" stroke-linejoin="round" stroke-miterlimit="10" points="648.1,45.1 
		648.1,59.9 670.2,70.9 670.2,56.2 	"/>
	<polygon fill="none" stroke="#3E95E9" stroke-width="2" stroke-linejoin="round" stroke-miterlimit="10" points="751.4,22.9 
		751.4,45.1 736.7,52.4 736.7,30.3 	"/>
	<polygon fill="none" stroke="#3E95E9" stroke-width="2" stroke-linejoin="round" stroke-miterlimit="10" points="729.2,34 
		729.2,56.2 714.4,63.5 714.4,41.3 	"/>
	<polygon fill="none" stroke="#3E95E9" stroke-width="2" stroke-linejoin="round" stroke-miterlimit="10" points="707,45 707,67.2 
		692.3,74.6 692.3,52.4 	"/>
	<polygon fill="none" stroke="#3E95E9" stroke-width="2" stroke-linejoin="round" stroke-miterlimit="10" points="751.4,52.2 
		751.4,74.4 736.7,81.7 736.7,59.6 	"/>
	<polygon fill="none" stroke="#3E95E9" stroke-width="2" stroke-linejoin="round" stroke-miterlimit="10" points="729.2,63.3 
		729.2,85.4 714.4,92.8 714.4,70.6 	"/>
	<polygon fill="none" stroke="#3E95E9" stroke-width="2" stroke-linejoin="round" stroke-miterlimit="10" points="707,74.3 
		707,96.5 692.3,103.9 692.3,81.7 	"/>
	<polygon fill="none" stroke="#3E95E9" stroke-width="2" stroke-linejoin="round" stroke-miterlimit="10" points="825,-52.5 
		839.7,-59.8 839.7,-22.8 825,-15.5 	"/>
	<polygon fill="none" stroke="#3E95E9" stroke-width="2" stroke-linejoin="round" stroke-miterlimit="10" points="847.5,-63.6 
		862.3,-71.1 862.3,-34.1 847.5,-26.7 	"/>
	<polygon fill="none" stroke="#3E95E9" stroke-width="2" stroke-linejoin="round" stroke-miterlimit="10" points="825,-0.7 
		839.7,-8 839.7,29 825,36.4 	"/>
	<polygon fill="none" stroke="#3E95E9" stroke-width="2" stroke-linejoin="round" stroke-miterlimit="10" points="847.5,-11.8 
		862.3,-19.2 862.3,17.8 847.5,25.1 	"/>
</g>
<path fill="none" stroke="#3E95E9" stroke-width="2" stroke-linejoin="round" stroke-miterlimit="10" d="M677.3,22.3"/>
<path fill="none" stroke="#3E95E9" stroke-width="2" stroke-linejoin="round" stroke-miterlimit="10" d="M825-36.3"/>
<path fill="none" stroke="#3E95E9" stroke-width="2" stroke-linejoin="round" stroke-miterlimit="10" d="M685.8,1.3"/>
<line fill="none" stroke="#3E95E9" stroke-width="2" stroke-linejoin="round" stroke-miterlimit="10" x1="836.6" y1="91.1" x2="836.6" y2="54.1"/>
<line fill="none" stroke="#3E95E9" stroke-width="2" stroke-linejoin="round" stroke-miterlimit="10" x1="854.8" y1="82" x2="854.8" y2="45"/>
<path fill="none" stroke="#3E95E9" stroke-width="2" stroke-linejoin="round" stroke-miterlimit="10" d="M825,13.5"/>
<path fill="none" stroke="#3E95E9" stroke-width="2" stroke-linejoin="round" stroke-miterlimit="10" d="M567,122.7"/>
<g>
	
		<line fill="none" stroke="#3E95E9" stroke-width="2" stroke-linejoin="round" stroke-miterlimit="10" x1="743.7" y1="-74.7" x2="678.7" y2="-42.3"/>
	<polyline fill="none" stroke="#3E95E9" stroke-width="2" stroke-linejoin="round" stroke-miterlimit="10" points="677.4,126.7 
		677.4,52.2 581.8,6 	"/>
	
		<line fill="none" stroke="#3E95E9" stroke-width="2" stroke-linejoin="round" stroke-miterlimit="10" x1="679.5" y1="-37.6" x2="743.7" y2="-69.9"/>
	<polyline fill="none" stroke="#3E95E9" stroke-width="2" stroke-linejoin="round" stroke-miterlimit="10" points="765.6,97 
		802.9,115.7 818,108 818,108 818,63.4 862.2,41.3 862.3,85.7 854.8,82 818,100.3 	"/>
	<polyline fill="none" stroke="#3E95E9" stroke-width="2" stroke-linejoin="round" stroke-miterlimit="10" points="623.1,-9.2 
		596.2,4.2 677.3,44.8 751,8 758.5,11.8 758.5,86.3 	"/>
	
		<line fill="none" stroke="#3E95E9" stroke-width="2" stroke-linejoin="round" stroke-miterlimit="10" x1="621.8" y1="-1.1" x2="603.7" y2="8"/>
	
		<line fill="none" stroke="#3E95E9" stroke-width="2" stroke-linejoin="round" stroke-miterlimit="10" x1="743.7" y1="-61.8" x2="698.5" y2="-39.3"/>
	
		<ellipse fill="none" stroke="#3E95E9" stroke-width="2" stroke-linejoin="round" stroke-miterlimit="10" cx="653.6" cy="-71.8" rx="20.3" ry="8.2"/>
	<path fill="none" stroke="#3E95E9" stroke-width="2" stroke-linejoin="round" stroke-miterlimit="10" d="M653.6-67.7
		c-3.5,0-6.8-0.5-9.3-1.5c-2.3-0.9-3.1-2-3.1-2.5c0-0.6,0.8-1.6,3.1-2.5c2.5-1,5.8-1.5,9.3-1.5s6.8,0.5,9.3,1.5
		c2.3,0.9,3.1,2,3.1,2.5c0,0.6-0.8,1.6-3.1,2.5C660.4-68.2,657.1-67.7,653.6-67.7z"/>
	<path fill="none" stroke="#3E95E9" stroke-width="2" stroke-linejoin="round" stroke-miterlimit="10" d="M643.9-69.6
		c0.4-0.4,1.1-0.9,2.1-1.3c2-0.8,4.7-1.3,7.6-1.3c2.9,0,5.6,0.5,7.6,1.3c0.9,0.4,1.6,0.8,2,1.2"/>
	<path fill="none" stroke="#3E95E9" stroke-width="2" stroke-linejoin="round" stroke-miterlimit="10" d="M633.3-71.8L621.4,1.3
		c0,7.2,14.4,13.1,32.2,13.1c13.3,0,17-1.6,17.8-1.8"/>
	
		<line fill="none" stroke="#3E95E9" stroke-width="2" stroke-linejoin="round" stroke-miterlimit="10" x1="673.9" y1="-71.8" x2="679.8" y2="-35.5"/>
	
		<ellipse fill="none" stroke="#3E95E9" stroke-width="2" stroke-linejoin="round" stroke-miterlimit="10" cx="695.1" cy="-32.8" rx="16.4" ry="6.7"/>
	<path fill="none" stroke="#3E95E9" stroke-width="2" stroke-linejoin="round" stroke-miterlimit="10" d="M695.1-30.1
		c-2.8,0-5.4-0.4-7.3-1c-1.8-0.6-2.4-1.3-2.4-1.7c0-0.4,0.6-1.1,2.4-1.7c1.9-0.7,4.5-1,7.3-1c2.8,0,5.4,0.4,7.3,1
		c1.8,0.6,2.4,1.3,2.4,1.7c0,0.4-0.6,1.1-2.4,1.7C700.5-30.4,697.9-30.1,695.1-30.1z"/>
	
		<line fill="none" stroke="#3E95E9" stroke-width="2" stroke-linejoin="round" stroke-miterlimit="10" x1="720.6" y1="23" x2="711.6" y2="-32.8"/>
	<path fill="none" stroke="#3E95E9" stroke-width="2" stroke-linejoin="round" stroke-miterlimit="10" d="M678.7-32.8L670.1,20
		l-1.1,6.4c0,5.5,10.4,10.1,23.8,10.6"/>
	
		<line fill="none" stroke="#3E95E9" stroke-width="2" stroke-linejoin="round" stroke-miterlimit="10" x1="802.9" y1="-62.6" x2="877" y2="-99.7"/>
	<polygon fill="none" stroke="#3E95E9" stroke-width="2" stroke-linejoin="round" stroke-miterlimit="10" points="758.6,-92.5 
		802.8,-70.5 861.8,-99.9 817.5,-122 	"/>
	<polyline fill="none" stroke="#3E95E9" stroke-width="2" stroke-linejoin="round" stroke-miterlimit="10" points="817.5,-122 
		817.4,-112.9 767.6,-88.1 	"/>
	
		<line fill="none" stroke="#3E95E9" stroke-width="2" stroke-linejoin="round" stroke-miterlimit="10" x1="817.4" y1="-112.9" x2="852.6" y2="-95.4"/>
	<polyline fill="none" stroke="#3E95E9" stroke-width="2" stroke-linejoin="round" stroke-miterlimit="10" points="743.7,-92 
		817.8,-129.2 877,-99.5 877,78.4 862.3,85.9 	"/>
	<polyline fill="none" stroke="#3E95E9" stroke-width="2" stroke-linejoin="round" stroke-miterlimit="10" points="743.7,11.7 
		743.7,-92.1 802.9,-62.6 802.9,115.7 	"/>
	<polyline fill="none" stroke="#3E95E9" stroke-width="2" stroke-linejoin="round" stroke-miterlimit="10" points="581.8,71.4 
		581.8,6 624,-15.1 	"/>
	
		<line fill="none" stroke="#3E95E9" stroke-width="2" stroke-linejoin="round" stroke-miterlimit="10" x1="677.4" y1="52.2" x2="758.5" y2="11.8"/>
</g>
<g>
	<polygon fill="none" stroke="#3E95E9" stroke-width="2" stroke-linejoin="round" stroke-miterlimit="10" points="765.6,97 
		677.4,141.1 567,86.1 567,78.8 677.4,133.8 765.6,89.9 	"/>
	
		<line fill="none" stroke="#3E95E9" stroke-width="2" stroke-linejoin="round" stroke-miterlimit="10" x1="567" y1="78.8" x2="581.8" y2="71.4"/>
	<polyline fill="none" stroke="#3E95E9" stroke-width="2" stroke-linejoin="round" stroke-miterlimit="10" points="581.8,71.4 
		581.8,79 677.4,126.7 758.5,86.3 765.6,89.9 	"/>
</g>
</svg>
