<?xml version="1.0" encoding="utf-8"?>
<!-- Generator: Adobe Illustrator 16.0.0, SVG Export Plug-In . SVG Version: 6.00 Build 0)  -->
<!DOCTYPE svg PUBLIC "-//W3C//DTD SVG 1.1//EN" "http://www.w3.org/Graphics/SVG/1.1/DTD/svg11.dtd">
<svg version="1.1" id="build_3" xmlns="http://www.w3.org/2000/svg" xmlns:xlink="http://www.w3.org/1999/xlink" x="0px"
	 y="0px" width="267px" height="232px" viewBox="-135.8 -105 267 232" enable-background="new -135.8 -105 267 232"
	 xml:space="preserve">
<g>
	<path fill="none" stroke="#3E95E9" stroke-width="2" stroke-linejoin="round" stroke-miterlimit="10" d="M-22.3,66.1l-13.2,6.6
		v-99.9l13.2-6.7V66.1z"/>
	<path fill="none" stroke="#3E95E9" stroke-width="2" stroke-linejoin="round" stroke-miterlimit="10" d="M-8.9-33.9l13.2,6.7v99.9
		l-13.2-6.6V-33.9z"/>
	<path fill="none" stroke="#3E95E9" stroke-width="2" stroke-linejoin="round" stroke-miterlimit="10" d="M-42.1,76.1l-13.2,6.6
		v-99.9l13.2-6.7V76.1z"/>
	<path fill="none" stroke="#3E95E9" stroke-width="2" stroke-linejoin="round" stroke-miterlimit="10" d="M10.9-23.9l19.9,10v6.7
		l-19.9-10V-23.9z"/>
	<path fill="none" stroke="#3E95E9" stroke-width="2" stroke-linejoin="round" stroke-miterlimit="10" d="M10.9-10.6l19.9,10v6.7
		l-19.9-10V-10.6z"/>
	<path fill="none" stroke="#3E95E9" stroke-width="2" stroke-linejoin="round" stroke-miterlimit="10" d="M10.9,2.8l19.9,10v6.7
		l-19.9-10V2.8z"/>
	<path fill="none" stroke="#3E95E9" stroke-width="2" stroke-linejoin="round" stroke-miterlimit="10" d="M10.9,16.1l19.9,10v6.7
		l-19.9-10V16.1z"/>
	<path fill="none" stroke="#3E95E9" stroke-width="2" stroke-linejoin="round" stroke-miterlimit="10" d="M10.9,29.5l19.9,10v6.7
		l-19.9-10V29.5z"/>
	<path fill="none" stroke="#3E95E9" stroke-width="2" stroke-linejoin="round" stroke-miterlimit="10" d="M10.9,42.9l19.9,10v6.7
		l-19.9-10V42.9z"/>
	<path fill="none" stroke="#3E95E9" stroke-width="2" stroke-linejoin="round" stroke-miterlimit="10" d="M10.9,56.2l19.9,10v6.7
		l-19.9-10V56.2z"/>
	<path fill="none" stroke="#3E95E9" stroke-width="2" stroke-linejoin="round" stroke-miterlimit="10" d="M10.9,69.6l19.9,10v6.7
		l-19.9-10V69.6z"/>
	<path fill="none" stroke="#3E95E9" stroke-width="2" stroke-linejoin="round" stroke-miterlimit="10" d="M37.5-10.6l13.2,6.7V96
		l-13.2-6.6V-10.6z"/>
	<polygon fill="none" stroke="#3E95E9" stroke-width="2" stroke-linejoin="round" stroke-miterlimit="10" points="63.9,82.6 
		63.9,95.9 77.2,89.2 77.2,76 	"/>
	<polygon fill="none" stroke="#3E95E9" stroke-width="2" stroke-linejoin="round" stroke-miterlimit="10" points="103.7,62.7 
		103.7,75.9 116.9,69.3 116.9,56 	"/>
	<polygon fill="none" stroke="#3E95E9" stroke-width="2" stroke-linejoin="round" stroke-miterlimit="10" points="83.8,72.7 
		83.8,86 97,79.3 97,66 	"/>
	<polygon fill="none" stroke="#3E95E9" stroke-width="2" stroke-linejoin="round" stroke-miterlimit="10" points="63.9,62.6 
		63.9,75.8 77.2,69.2 77.2,55.9 	"/>
	<polygon fill="none" stroke="#3E95E9" stroke-width="2" stroke-linejoin="round" stroke-miterlimit="10" points="103.7,42.6 
		103.7,55.9 116.9,49.2 116.9,35.9 	"/>
	<polygon fill="none" stroke="#3E95E9" stroke-width="2" stroke-linejoin="round" stroke-miterlimit="10" points="83.8,52.6 
		83.8,65.9 97,59.2 97,45.9 	"/>
	<polygon fill="none" stroke="#3E95E9" stroke-width="2" stroke-linejoin="round" stroke-miterlimit="10" points="63.9,42.6 
		63.9,55.9 77.2,49.2 77.2,35.9 	"/>
	<polygon fill="none" stroke="#3E95E9" stroke-width="2" stroke-linejoin="round" stroke-miterlimit="10" points="103.7,22.6 
		103.7,35.9 116.9,29.2 116.9,15.9 	"/>
	<polygon fill="none" stroke="#3E95E9" stroke-width="2" stroke-linejoin="round" stroke-miterlimit="10" points="83.8,32.6 
		83.8,45.9 97,39.2 97,25.9 	"/>
	<polygon fill="none" stroke="#3E95E9" stroke-width="2" stroke-linejoin="round" stroke-miterlimit="10" points="63.9,22.6 
		63.9,35.9 77.2,29.2 77.2,15.9 	"/>
	<polygon fill="none" stroke="#3E95E9" stroke-width="2" stroke-linejoin="round" stroke-miterlimit="10" points="103.7,2.6 
		103.7,15.9 116.9,9.2 116.9,-4 	"/>
	<polygon fill="none" stroke="#3E95E9" stroke-width="2" stroke-linejoin="round" stroke-miterlimit="10" points="83.8,12.7 
		83.8,25.9 97,19.3 97,6 	"/>
	<polygon fill="none" stroke="#3E95E9" stroke-width="2" stroke-linejoin="round" stroke-miterlimit="10" points="63.9,2.7 
		63.9,15.9 77.2,9.3 77.2,-4 	"/>
	<polygon fill="none" stroke="#3E95E9" stroke-width="2" stroke-linejoin="round" stroke-miterlimit="10" points="103.7,-17.3 
		103.7,-4 116.9,-10.7 116.9,-24 	"/>
	<polygon fill="none" stroke="#3E95E9" stroke-width="2" stroke-linejoin="round" stroke-miterlimit="10" points="83.8,-7.3 83.8,6 
		97,-0.7 97,-14 	"/>
	<polygon fill="none" stroke="#3E95E9" stroke-width="2" stroke-linejoin="round" stroke-miterlimit="10" points="-114.9,-27.2 
		-114.9,6.1 -101.7,12.8 -101.7,-20.6 	"/>
	<polygon fill="none" stroke="#3E95E9" stroke-width="2" stroke-linejoin="round" stroke-miterlimit="10" points="-88.4,-13.9 
		-88.4,19.4 -75.2,26.2 -75.2,-7.2 	"/>
	<polygon fill="none" stroke="#3E95E9" stroke-width="2" stroke-linejoin="round" stroke-miterlimit="10" points="-114.9,19.6 
		-114.9,53 -101.7,59.7 -101.7,26.3 	"/>
	<polygon fill="none" stroke="#3E95E9" stroke-width="2" stroke-linejoin="round" stroke-miterlimit="10" points="-88.4,33 
		-88.4,66.3 -75.2,73 -75.2,39.6 	"/>
</g>
<g>
	<path fill="none" stroke="#3E95E9" stroke-width="2" stroke-linejoin="round" stroke-miterlimit="10" d="M57.4-33.9l53-26.7v13.4
		l-53,26.6V-33.9z"/>
	<path fill="none" stroke="#3E95E9" stroke-width="2" stroke-linejoin="round" stroke-miterlimit="10" d="M-128.2,66.1V-47.3
		L-15.6-104l13.2,6.7"/>
	<path fill="none" stroke="#3E95E9" stroke-width="2" stroke-linejoin="round" stroke-miterlimit="10" d="M-15.6-50.4V76"/>
	<path fill="none" stroke="#3E95E9" stroke-width="2" stroke-linejoin="round" stroke-miterlimit="10" d="M57.3,112.6V-13.7
		l66.3-33.5V79.4"/>
	<polyline fill="none" stroke="#3E95E9" stroke-width="2" stroke-linejoin="round" stroke-miterlimit="10" points="-61.9,99.3 
		-61.9,-27.2 -15.6,-50.4 57.3,-13.7 	"/>
	
		<line fill="none" stroke="#3E95E9" stroke-width="2" stroke-linejoin="round" stroke-miterlimit="10" x1="110.3" y1="-53.9" x2="123.6" y2="-47.2"/>
	<polyline fill="none" stroke="#3E95E9" stroke-width="2" stroke-linejoin="round" stroke-miterlimit="10" points="-101.7,-47.1 
		10.9,-104 41.8,-88.4 	"/>
	<polygon fill="none" stroke="#3E95E9" stroke-width="2" stroke-linejoin="round" stroke-miterlimit="10" points="57.4,-33.9 
		4.3,-60.6 4.3,-47.2 57.4,-20.6 	"/>
	
		<line fill="none" stroke="#3E95E9" stroke-width="2" stroke-linejoin="round" stroke-miterlimit="10" x1="96.9" y1="-67.3" x2="110.3" y2="-60.6"/>
	
		<line fill="none" stroke="#3E95E9" stroke-width="2" stroke-linejoin="round" stroke-miterlimit="10" x1="4.3" y1="-60.6" x2="17.5" y2="-67.2"/>
	<path fill="none" stroke="#3E95E9" stroke-width="2" stroke-linejoin="round" stroke-miterlimit="10" d="M57.4-53.9l39.5-19.9v13.5
		L57.4-40.4V-53.9z"/>
	<polygon fill="none" stroke="#3E95E9" stroke-width="2" stroke-linejoin="round" stroke-miterlimit="10" points="57.4,-53.9 
		17.8,-73.8 17.8,-60.3 57.4,-40.4 	"/>
	
		<line fill="none" stroke="#3E95E9" stroke-width="2" stroke-linejoin="round" stroke-miterlimit="10" x1="84" y1="-80.5" x2="96.9" y2="-73.8"/>
	
		<line fill="none" stroke="#3E95E9" stroke-width="2" stroke-linejoin="round" stroke-miterlimit="10" x1="17.8" y1="-73.8" x2="31" y2="-80.7"/>
	<path fill="none" stroke="#3E95E9" stroke-width="2" stroke-linejoin="round" stroke-miterlimit="10" d="M57.5-69.5L84-82.8v9
		L57.5-60.5V-69.5z"/>
	<polygon fill="none" stroke="#3E95E9" stroke-width="2" stroke-linejoin="round" stroke-miterlimit="10" points="57.5,-69.5 
		31,-82.8 31,-73.8 57.5,-60.5 	"/>
	<polyline fill="none" stroke="#3E95E9" stroke-width="2" stroke-linejoin="round" stroke-miterlimit="10" points="31,-82.8 
		57.5,-96.3 84,-82.8 	"/>
	<path fill="none" stroke="#3E95E9" stroke-width="2" stroke-linejoin="round" stroke-miterlimit="10" d="M96.9-67.3"/>
	<polyline fill="none" stroke="#3E95E9" stroke-width="2" stroke-linejoin="round" stroke-miterlimit="10" points="-128.2,-47.4 
		-101.6,-33.6 -101.6,-33.7 -101.7,-47.1 -61.9,-27.2 	"/>
	<polyline fill="none" stroke="#3E95E9" stroke-width="2" stroke-linejoin="round" stroke-miterlimit="10" points="-102,-40.6 
		-114.9,-47.2 -15.6,-97.3 -8.9,-94 	"/>
</g>
<g>
	<path fill="none" stroke="#3E95E9" stroke-width="2" stroke-linejoin="round" stroke-miterlimit="10" d="M-15.9,83.1v6.5"/>
	
		<line fill="none" stroke="#3E95E9" stroke-width="2" stroke-linejoin="round" stroke-miterlimit="10" x1="-61.8" y1="106.1" x2="-61.8" y2="112.7"/>
	<path fill="none" stroke="#3E95E9" stroke-width="2" stroke-linejoin="round" stroke-miterlimit="10" d="M57.2,126l73-36.7v-6.6
		l-73,36.6V126l-73.1-36.4l-45.9,23.1l-73-36.5v-6.5l73,36.4l45.9-23l73.1,36.2"/>
	<polyline fill="none" stroke="#3E95E9" stroke-width="2" stroke-linejoin="round" stroke-miterlimit="10" points="-134.8,69.7 
		-128.2,66.1 -61.9,99.3 -15.6,76.1 57.3,112.6 123.6,79.4 130.2,82.7 	"/>
</g>
</svg>
