<?xml version="1.0" encoding="utf-8"?>
<!-- Generator: Adobe Illustrator 18.0.0, SVG Export Plug-In . SVG Version: 6.00 Build 0)  -->
<!DOCTYPE svg PUBLIC "-//W3C//DTD SVG 1.1//EN" "http://www.w3.org/Graphics/SVG/1.1/DTD/svg11.dtd">
<svg version="1.1" id="Layer_1" xmlns="http://www.w3.org/2000/svg" xmlns:xlink="http://www.w3.org/1999/xlink" x="0px" y="0px"
	 width="420px" height="243.3px" viewBox="0 0 420 243.3" enable-background="new 0 0 420 243.3" xml:space="preserve">
<g>
	<g>
		<g>
			<polygon fill="none" stroke="#3E95E9" stroke-linejoin="round" stroke-miterlimit="10" points="2,129.7 2,209.4 66,241.3 
				66,161.6 			"/>
			<polygon fill="none" stroke="#3E95E9" stroke-linejoin="round" stroke-miterlimit="10" points="2,129.7 258,2 322,33.9 66,161.6 
							"/>
			<polygon fill="none" stroke="#3E95E9" stroke-linejoin="round" stroke-miterlimit="10" points="7,137.6 7,206.3 60.3,232.4 
				60.3,164.4 			"/>
			<line fill="none" stroke="#3E95E9" stroke-linejoin="round" stroke-miterlimit="10" x1="7" y1="206.3" x2="60.3" y2="180.3"/>
			<polyline fill="none" stroke="#3E95E9" stroke-linejoin="round" stroke-miterlimit="10" points="322,81.8 322,33.9 258,2 
				2,129.7 			"/>
			<path fill="none" stroke="#3E95E9" stroke-linejoin="round" stroke-miterlimit="10" d="M66,241.3"/>
		</g>
		<g>
			<polygon fill="none" stroke="#3E95E9" stroke-linejoin="round" stroke-miterlimit="10" points="338,73.7 146,169.4 178,185.4 
				370,89.7 			"/>
			<path fill="none" stroke="#3E95E9" stroke-linejoin="round" stroke-miterlimit="10" d="M370,137.5"/>
			<polyline fill="none" stroke="#3E95E9" stroke-linejoin="round" stroke-miterlimit="10" points="258,193.5 178,233.3 178,185.4 
				370,89.7 			"/>
			<polygon fill="none" stroke="#3E95E9" stroke-linejoin="round" stroke-miterlimit="10" points="146,169.4 146,217.3 178,233.3 
				178,185.4 			"/>
			<path fill="none" stroke="#3E95E9" stroke-linejoin="round" stroke-miterlimit="10" d="M178,233.3"/>
			<polyline fill="none" stroke="#3E95E9" stroke-linejoin="round" stroke-miterlimit="10" points="146,169.4 338,73.7 370,89.7 
				370,121.7 			"/>
			<polygon fill="none" stroke="#3E95E9" stroke-linejoin="round" stroke-miterlimit="10" points="148.8,174.1 148.9,215.5 
				175,228.2 175.1,187 			"/>
			
				<line fill="none" stroke="#3E95E9" stroke-linejoin="round" stroke-miterlimit="10" x1="148.9" y1="215.5" x2="175.1" y2="202.3"/>
		</g>
		<g>
			<polygon fill="none" stroke="#3E95E9" stroke-linejoin="round" stroke-miterlimit="10" points="386,113.6 258,177.5 290,193.4 
				418,129.6 			"/>
			<polygon fill="none" stroke="#3E95E9" stroke-linejoin="round" stroke-miterlimit="10" points="290,225.3 418,161.5 418,129.6 
				290,193.4 			"/>
			<polygon fill="none" stroke="#3E95E9" stroke-linejoin="round" stroke-miterlimit="10" points="258,177.5 258,209.4 290,225.3 
				290,193.4 			"/>
			<polyline fill="none" stroke="#3E95E9" stroke-linejoin="round" stroke-miterlimit="10" points="258,177.5 386,113.6 418,129.6 
				418,161.5 290,225.3 			"/>
			<polygon fill="none" stroke="#3E95E9" stroke-linejoin="round" stroke-miterlimit="10" points="260.5,181.6 260.5,207.5 
				287.5,220.8 287.5,195.4 			"/>
			
				<line fill="none" stroke="#3E95E9" stroke-linejoin="round" stroke-miterlimit="10" x1="260.5" y1="207.5" x2="286.2" y2="194.7"/>
		</g>
		<polyline fill="none" stroke="#3E95E9" stroke-linejoin="round" stroke-miterlimit="10" points="34,151.2 34,145.4 290,18 		"/>
		<polyline fill="none" stroke="#3E95E9" stroke-linejoin="round" stroke-miterlimit="10" points="33.7,225.2 33.7,219.3 60.3,206 
					"/>
		<polyline fill="none" stroke="#3E95E9" stroke-linejoin="round" stroke-miterlimit="10" points="162,225.3 162,221.9 175,215.5 		
			"/>
		<polyline fill="none" stroke="#3E95E9" stroke-linejoin="round" stroke-miterlimit="10" points="162,180.6 162,177.4 354,81.7 		
			"/>
		<polyline fill="none" stroke="#3E95E9" stroke-linejoin="round" stroke-miterlimit="10" points="274,217.3 274,214.2 287.5,207.5 
					"/>
		<polyline fill="none" stroke="#3E95E9" stroke-linejoin="round" stroke-miterlimit="10" points="274,188.5 274,185.4 402,121.6 		
			"/>
		<line fill="none" stroke="#3E95E9" stroke-linejoin="round" stroke-miterlimit="10" x1="66" y1="241.3" x2="146" y2="201.1"/>
	</g>
	<g>
		<path fill="#3E95E9" d="M258,2l64,31.9l0,47.8l16-8l32,15.9l0,32l16-8l32,15.9l0,32l-128,63.8l-32-16v-16l-80,39.8l-32-15.9v-16
			l-80,39.9L2,209.4l0-79.7L258,2 M258,0c-0.3,0-0.6,0.1-0.9,0.2L1.1,127.9c-0.7,0.3-1.1,1-1.1,1.8l0,79.7c0,0.8,0.4,1.5,1.1,1.8
			l64,31.9c0.3,0.1,0.6,0.2,0.9,0.2s0.6-0.1,0.9-0.2l77.1-38.4v12.7c0,0.8,0.4,1.5,1.1,1.8l32,15.9c0.3,0.1,0.6,0.2,0.9,0.2
			c0.3,0,0.6-0.1,0.9-0.2l77.1-38.4v12.7c0,0.8,0.4,1.5,1.1,1.8l32,16c0.3,0.1,0.6,0.2,0.9,0.2s0.6-0.1,0.9-0.2l128-63.8
			c0.7-0.3,1.1-1,1.1-1.8l0-32c0-0.8-0.4-1.5-1.1-1.8l-32-15.9c-0.3-0.1-0.6-0.2-0.9-0.2c-0.3,0-0.6,0.1-0.9,0.2l-13.1,6.5l0-28.8
			c0-0.8-0.4-1.5-1.1-1.8l-32-15.9c-0.3-0.1-0.6-0.2-0.9-0.2c-0.3,0-0.6,0.1-0.9,0.2L324,78.5l0-44.6c0-0.8-0.4-1.5-1.1-1.8
			l-64-31.9C258.6,0.1,258.3,0,258,0L258,0z"/>
	</g>
</g>
</svg>
