<?xml version="1.0" encoding="utf-8"?>
<!-- Generator: Adobe Illustrator 18.0.0, SVG Export Plug-In . SVG Version: 6.00 Build 0)  -->
<!DOCTYPE svg PUBLIC "-//W3C//DTD SVG 1.1//EN" "http://www.w3.org/Graphics/SVG/1.1/DTD/svg11.dtd">
<svg version="1.1" xmlns="http://www.w3.org/2000/svg" xmlns:xlink="http://www.w3.org/1999/xlink" x="0px" y="0px" id="build1" width="388px"
	 height="319.7px" viewBox="0 0 388 319.7" style="enable-background:new 0 0 388 319.7;" xml:space="preserve">
<style type="text/css">
	
</style>
<g id="Layer_4">
	<g>
		<g>
			<path class="st33" d="M185.2,2c39.8,0,84.5,16.2,110.8,45.1c49.3,10.9,74,25.4,90,47.2v79.8l-32,16l-16-8v-56.2l-80,40.8v71.3
				l-32,16l-16-8V190l-80,39.9v71.8l-32,16l-16-8v-71.8l-32-16v39.9l-32,16l-16-8v-80.5C2,135.9,64.1,27.9,155.1,5.4
				C164.5,3.1,174.7,2,185.2,2 M185.2,0c-10.8,0-21.1,1.2-30.6,3.5c-41,10.1-80.7,38.9-111.8,81.1C16.8,119.9,0,161,0,189.3v80.5
				c0,0.8,0.4,1.5,1.1,1.8l16,8c0.3,0.1,0.6,0.2,0.9,0.2s0.6-0.1,0.9-0.2l32-16c0.7-0.3,1.1-1,1.1-1.8v-36.7l28,14v70.6
				c0,0.8,0.4,1.5,1.1,1.8l16,8c0.3,0.1,0.6,0.2,0.9,0.2s0.6-0.1,0.9-0.2l32-16c0.7-0.3,1.1-1,1.1-1.8v-70.6l76-37.9v52.6
				c0,0.8,0.4,1.5,1.1,1.8l16,8c0.3,0.1,0.6,0.2,0.9,0.2s0.6-0.1,0.9-0.2l32-16c0.7-0.3,1.1-1,1.1-1.8v-70l76-38.7v52.9
				c0,0.8,0.4,1.5,1.1,1.8l16,8c0.3,0.1,0.6,0.2,0.9,0.2s0.6-0.1,0.9-0.2l32-16c0.7-0.3,1.1-1,1.1-1.8V94.3c0-0.4-0.1-0.8-0.4-1.2
				c-17.2-23.4-43.5-37.3-90.6-47.8C271.7,17.8,227.9,0,185.2,0L185.2,0z"/>
		</g>
		<path class="st49" d="M162.1,95.3l0-79.5 M130.1,125.2l29.2-108.5 M192.4,89.2l1.6,4.4 M165.2,15l22.1,60.2 M194.1,88.3v5.3
			 M194.1,11.4v59.8 M129.3,125.2V29.6 M129.3,125.9L99.2,49.4 M97.6,141.4l0-90.7 M66.7,80.8l30.9,60.6 M66.1,81.5l0,75.6
			 M200.9,67.2L214.8,13 M195.7,87.2l-1.7,6.4 M218.1,73.1v8.3 M218.1,13.7v44.7 M227.1,54.6l12-35.4 M218.1,81.3l3.3-9.9
			 M243.5,20.8v28.4 M267.5,33.6l-9,13.1 M243.1,69.1l6-8.7 M66.1,157.1L34,131.4 M242,165.4V62.6 M242,62.6l-32.7,118.8
			 M273.3,149.8L242,62.6 M274,55.8v94 M209.3,78.4v103 M209.3,181.4l-31.8-79.8 M177.5,197.5v-96 M146,135.7l31.5,61.8 M146,135.7
			v77.6 M298,56.4l-24,93.4 M298,56.4v81.1 M323.4,62.4L298,137.5 M323.4,62.4v62.4 M355.9,77.4l-32.5,47.4 M116.2,189l29.8,24.3"/>
		<path class="st49" d="M386,93.6L98,237.2L2,189.3 M321.3,61.4l39.2,19.6 M18.7,181.1l118.6-59.1 M269.2,56.1l-91.6,45.7
			 M291.1,53.1 M253.5,17.5C221.8,2,180.1-3.7,146,8.2C48.5,42.1,2,141.6,2,189.3l8,3.8C10,145.4,56.5,45.9,154,12 M280.4,45.9
			c-5.5-6.3-6-6.8-9.2-10.3 M296.1,47.3C266.7,13.1,203.4-5.2,154,12C56.5,45.9,10,145.4,10,193.2l8-4.1l0,0
			c1.7-47.9,46.2-136.8,136-170.5c44.5-16.7,98.1-2.3,130.3,27.6 M379.1,97.2l-7.8-4l-264.6,132 M160.9,117.9l125.3-62.4
			 M18.5,188.7l109.2-54.3 M342.2,61.9c-31.8-16-73.6-21.7-108.2-9.7c-47.1,16.4-82.3,48.1-106.1,81.9
			C102.4,170.2,90,208.7,90,233.4l8,3.8C98,189.5,144.5,90,242,56.1c50.5-17.6,115.5,2,144,37.6 M371.2,93.2
			c-4.7-5.3-8.1-9.2-11-12.4 M106,233.1v0.3c1.7-47.9,46.2-137.1,136-170.8c48-18,106.1-0.2,137.1,34.6l6.9-3.6
			c-28.5-35.6-93.5-55.1-144-37.6C144.5,90,98,189.5,98,237.2L106,233.1z M2,189.3v8.7l96,47.9l0-8.6L2,189.3z M98,237.2l0,8.6
			l288-143.6l0-8.6L98,237.2z"/>
		<path class="st49" d="M98,245.9v71.8l-16-8v-71.8L98,245.9z M98,245.9v71.8l32-16v-71.8L98,245.9z M82,293.8l16,7.9l31.9-15.9
			 M98,253.9l-16-8 M98,253.9l32-16 M98,285.8l32-48 M130,270.4l-32-16.5 M130,270.9l-32,15 M98,285.8l-16-7.7 M82,262.1l16,7.7
			 M258,174.1l-32,16 M226,182.1l0,71.8l32-16v-71.3L226,182.1z M210,190v55.8l16,8l0-71.8L210,190z M210,229.9l16,8l32-16 M226,190
			l-8-4.2 M226,222l32-47.9 M226,190l32,15.9 M258,206l-32,16 M210,198.3l16,7.7 M210,213.8l16,8.1 M2,198l0,71.8l16,8l0-71.8L2,198
			z M50,261.8l0-39.9l-32-16l0,71.8L50,261.8z M2.1,253.9l15.9,8l32-16 M18,214l-15.9-8 M18,214l8-3.7 M38,216l-20,30 M50,229.9
			l-32-16 M18,245.9l32-16 M2.1,237.8l15.9,8.1 M2.1,222l15.9,7.9 M354.6,118.3L354,190l32-16v-71.8L354.6,118.3z M354,190l0.6-72.1
			l-16.6,8.3v55.8L354,190z M338,166.1l16,8l32-16 M346.3,122.4l8.3,4.1 M386,110.3l-31.4,16.3 M338,150.2l16.3,8.1 M354,142.2
			l-16-8 M386,142.2l-31.7,16.1 M354.3,158.3l31.7-48 M354.6,126.5l31.4,15.6"/>
	</g>
</g>
</svg>
