
<svg version="1.1" id="build_2" xmlns="http://www.w3.org/2000/svg" xmlns:xlink="http://www.w3.org/1999/xlink" x="0px" y="0px"
	 width="436.1px" height="259.3px" viewBox="0 0 436.1 259.3" enable-background="new 0 0 436.1 259.3" xml:space="preserve">
<g>
	<g>
		<polyline fill="none" stroke="#3E95E9" stroke-linejoin="round" stroke-miterlimit="10" points="321.9,129.7 322,33.9 130,129.6 
			130,225.4 194.1,193.4 		"/>
		<polygon fill="none" stroke="#3E95E9" stroke-linejoin="round" stroke-miterlimit="10" points="66,257.3 130,225.4 130,129.6 		
			"/>
		<polygon fill="none" stroke="#3E95E9" stroke-linejoin="round" stroke-miterlimit="10" points="2,225.4 66,193.5 66,97.7 		"/>
		<polyline fill="none" stroke="#3E95E9" stroke-linejoin="round" stroke-miterlimit="10" points="322,33.9 258,2 258.1,2 66,97.7 
			66,193.5 		"/>
		<line fill="none" stroke="#3E95E9" stroke-linejoin="round" stroke-miterlimit="10" x1="66" y1="97.7" x2="130" y2="129.6"/>
		<line fill="none" stroke="#3E95E9" stroke-linejoin="round" stroke-miterlimit="10" x1="66" y1="193.5" x2="130" y2="225.4"/>
		<line fill="none" stroke="#3E95E9" stroke-linejoin="round" stroke-miterlimit="10" x1="66" y1="257.3" x2="2" y2="225.4"/>
		<line fill="none" stroke="#3E95E9" stroke-linejoin="round" stroke-miterlimit="10" x1="258.1" y1="97.7" x2="273.9" y2="105.6"/>
		<line fill="none" stroke="#3E95E9" stroke-linejoin="round" stroke-miterlimit="10" x1="130" y1="129.6" x2="194.1" y2="193.5"/>
		<line fill="none" stroke="#3E95E9" stroke-linejoin="round" stroke-miterlimit="10" x1="226.2" y1="129.4" x2="258" y2="65.8"/>
		<line fill="none" stroke="#3E95E9" stroke-linejoin="round" stroke-miterlimit="10" x1="258" y1="65.8" x2="290" y2="97.6"/>
		<line fill="none" stroke="#3E95E9" stroke-linejoin="round" stroke-miterlimit="10" x1="258" y1="65.8" x2="258.1" y2="113.7"/>
		<line fill="none" stroke="#3E95E9" stroke-linejoin="round" stroke-miterlimit="10" x1="194.1" y1="193.5" x2="194.1" y2="97.7"/>
		<line fill="none" stroke="#3E95E9" stroke-linejoin="round" stroke-miterlimit="10" x1="194.1" y1="97.7" x2="130.1" y2="65.9"/>
		<line fill="none" stroke="#3E95E9" stroke-linejoin="round" stroke-miterlimit="10" x1="258" y1="65.8" x2="194" y2="33.9"/>
		
			<line fill="none" stroke="#3E95E9" stroke-linejoin="round" stroke-miterlimit="10" x1="194.1" y1="193.5" x2="130.1" y2="161.6"/>
		<line fill="none" stroke="#3E95E9" stroke-linejoin="round" stroke-miterlimit="10" x1="209.9" y1="137.5" x2="194" y2="129.7"/>
		<line fill="none" stroke="#3E95E9" stroke-linejoin="round" stroke-miterlimit="10" x1="130" y1="129.6" x2="130.1" y2="161.6"/>
		<line fill="none" stroke="#3E95E9" stroke-linejoin="round" stroke-miterlimit="10" x1="194.1" y1="97.7" x2="194" y2="129.7"/>
		<line fill="none" stroke="#3E95E9" stroke-linejoin="round" stroke-miterlimit="10" x1="66" y1="97.7" x2="194.1" y2="97.7"/>
		<line fill="none" stroke="#3E95E9" stroke-linejoin="round" stroke-miterlimit="10" x1="130.1" y1="65.9" x2="258" y2="65.8"/>
		<line fill="none" stroke="#3E95E9" stroke-linejoin="round" stroke-miterlimit="10" x1="194" y1="33.9" x2="322" y2="33.9"/>
		<line fill="none" stroke="#3E95E9" stroke-linejoin="round" stroke-miterlimit="10" x1="66" y1="193.5" x2="258.1" y2="97.7"/>
		<line fill="none" stroke="#3E95E9" stroke-linejoin="round" stroke-miterlimit="10" x1="130.1" y1="65.9" x2="130" y2="129.6"/>
		<line fill="none" stroke="#3E95E9" stroke-linejoin="round" stroke-miterlimit="10" x1="258.1" y1="2" x2="258.1" y2="65.8"/>
		<line fill="none" stroke="#3E95E9" stroke-linejoin="round" stroke-miterlimit="10" x1="194" y1="33.9" x2="194" y2="97.8"/>
	</g>
	<g>
		<polygon fill="none" stroke="#3E95E9" stroke-linejoin="round" stroke-miterlimit="10" points="193.9,209.3 193.9,145.5 
			337.9,73.7 337.9,137.5 		"/>
		<polygon fill="none" stroke="#3E95E9" stroke-linejoin="round" stroke-miterlimit="10" points="194,209.2 242,233.5 242,169.4 
			194.1,145.4 		"/>
		<polyline fill="none" stroke="#3E95E9" stroke-linejoin="round" stroke-miterlimit="10" points="307.4,200.7 241.8,233.6 
			242,169.4 338,121.5 		"/>
		<polygon fill="none" stroke="#3E95E9" stroke-linejoin="round" stroke-miterlimit="10" points="194.1,145.4 290,97.6 338,121.5 
			242,169.4 		"/>
		<line fill="none" stroke="#3E95E9" stroke-linejoin="round" stroke-miterlimit="10" x1="242" y1="233.5" x2="290.2" y2="145.5"/>
		<line fill="none" stroke="#3E95E9" stroke-linejoin="round" stroke-miterlimit="10" x1="289.8" y1="209.4" x2="338" y2="121.5"/>
		
			<line fill="none" stroke="#3E95E9" stroke-linejoin="round" stroke-miterlimit="10" x1="290.2" y1="145.5" x2="290.2" y2="209.4"/>
		
			<line fill="none" stroke="#3E95E9" stroke-linejoin="round" stroke-miterlimit="10" x1="290.2" y1="145.5" x2="242.1" y2="121.5"/>
		<line fill="none" stroke="#3E95E9" stroke-linejoin="round" stroke-miterlimit="10" x1="242" y1="169.4" x2="242.1" y2="121.5"/>
		<line fill="none" stroke="#3E95E9" stroke-linejoin="round" stroke-miterlimit="10" x1="290.2" y1="145.5" x2="290" y2="97.6"/>
		
			<line fill="none" stroke="#3E95E9" stroke-linejoin="round" stroke-miterlimit="10" x1="290.3" y1="161.5" x2="327.5" y2="180.1"/>
		<line fill="none" stroke="#3E95E9" stroke-linejoin="round" stroke-miterlimit="10" x1="242" y1="185.4" x2="289.8" y2="209.4"/>
		<line fill="none" stroke="#3E95E9" stroke-linejoin="round" stroke-miterlimit="10" x1="242" y1="185.4" x2="290" y2="97.6"/>
		
			<line fill="none" stroke="#3E95E9" stroke-linejoin="round" stroke-miterlimit="10" x1="290.3" y1="161.5" x2="338.2" y2="137.5"/>
		<line fill="none" stroke="#3E95E9" stroke-linejoin="round" stroke-miterlimit="10" x1="338" y1="73.6" x2="338" y2="137.5"/>
		<line fill="none" stroke="#3E95E9" stroke-linejoin="round" stroke-miterlimit="10" x1="290.3" y1="161.5" x2="338" y2="73.6"/>
		<line fill="none" stroke="#3E95E9" stroke-linejoin="round" stroke-miterlimit="10" x1="338.2" y1="137.5" x2="386" y2="161.4"/>
		<line fill="none" stroke="#3E95E9" stroke-linejoin="round" stroke-miterlimit="10" x1="338" y1="121.5" x2="386" y2="97.6"/>
		<line fill="none" stroke="#3E95E9" stroke-linejoin="round" stroke-miterlimit="10" x1="338" y1="121.5" x2="338.1" y2="169.6"/>
		<polyline fill="none" stroke="#3E95E9" stroke-linejoin="round" stroke-miterlimit="10" points="386,161.4 386,97.6 338,73.6 
			290,97.6 		"/>
		<line fill="none" stroke="#3E95E9" stroke-linejoin="round" stroke-miterlimit="10" x1="290" y1="97.6" x2="338" y2="121.5"/>
		<line fill="none" stroke="#3E95E9" stroke-linejoin="round" stroke-miterlimit="10" x1="386" y1="97.6" x2="349.8" y2="163.8"/>
		<line fill="none" stroke="#3E95E9" stroke-linejoin="round" stroke-miterlimit="10" x1="194" y1="209.2" x2="242.1" y2="121.5"/>
	</g>
	<g>
		<g>
			
				<line fill="none" stroke="#3E95E9" stroke-linejoin="round" stroke-miterlimit="10" x1="402.1" y1="137.7" x2="402.1" y2="169.7"/>
			<polyline fill="none" stroke="#3E95E9" stroke-linejoin="round" stroke-miterlimit="10" points="370.1,185.6 370.1,217.5 
				434.1,185.5 434.1,153.7 402.1,137.7 338.1,169.6 370.1,185.6 402,169.7 433.9,153.8 			"/>
			
				<line fill="none" stroke="#3E95E9" stroke-linejoin="round" stroke-miterlimit="10" x1="338.1" y1="201.5" x2="370.1" y2="185.6"/>
			
				<line fill="none" stroke="#3E95E9" stroke-linejoin="round" stroke-miterlimit="10" x1="338.1" y1="201.5" x2="402.3" y2="201.4"/>
			
				<line fill="none" stroke="#3E95E9" stroke-linejoin="round" stroke-miterlimit="10" x1="370.1" y1="185.6" x2="434.1" y2="185.5"/>
			
				<line fill="none" stroke="#3E95E9" stroke-linejoin="round" stroke-miterlimit="10" x1="402.3" y1="169.7" x2="434.1" y2="185.5"/>
			
				<line fill="none" stroke="#3E95E9" stroke-linejoin="round" stroke-miterlimit="10" x1="370.1" y1="185.6" x2="402.3" y2="201.4"/>
			
				<line fill="none" stroke="#3E95E9" stroke-linejoin="round" stroke-miterlimit="10" x1="338.1" y1="169.6" x2="338.1" y2="201.5"/>
			
				<line fill="none" stroke="#3E95E9" stroke-linejoin="round" stroke-miterlimit="10" x1="370.1" y1="217.5" x2="370.1" y2="185.6"/>
			
				<line fill="none" stroke="#3E95E9" stroke-linejoin="round" stroke-miterlimit="10" x1="338.1" y1="201.5" x2="305.9" y2="233.4"/>
			<polyline fill="none" stroke="#3E95E9" stroke-linejoin="round" stroke-miterlimit="10" points="370.1,217.5 305.9,233.4 
				305.9,201.5 338.1,169.6 			"/>
			
				<line fill="none" stroke="#3E95E9" stroke-linejoin="round" stroke-miterlimit="10" x1="370.1" y1="185.6" x2="305.9" y2="201.5"/>
			
				<line fill="none" stroke="#3E95E9" stroke-linejoin="round" stroke-miterlimit="10" x1="337.9" y1="201.7" x2="370.1" y2="217.5"/>
			
				<line fill="none" stroke="#3E95E9" stroke-linejoin="round" stroke-miterlimit="10" x1="370.1" y1="154.4" x2="370.1" y2="185.6"/>
			<line fill="none" stroke="#3E95E9" stroke-linejoin="round" stroke-miterlimit="10" x1="402" y1="169.7" x2="402" y2="201.4"/>
			<line fill="none" stroke="#3E95E9" stroke-linejoin="round" stroke-miterlimit="10" x1="402" y1="169.7" x2="370.1" y2="154.4"/>
			
				<line fill="none" stroke="#3E95E9" stroke-linejoin="round" stroke-miterlimit="10" x1="370.1" y1="154.4" x2="432.6" y2="154.4"/>
			<line fill="none" stroke="#3E95E9" stroke-linejoin="round" stroke-miterlimit="10" x1="337.9" y1="169.7" x2="402" y2="169.7"/>
		</g>
	</g>
	<line fill="none" stroke="#3E95E9" stroke-linejoin="round" stroke-miterlimit="10" x1="66" y1="97.7" x2="130.1" y2="161.6"/>
	<line fill="none" stroke="#3E95E9" stroke-linejoin="round" stroke-miterlimit="10" x1="130.1" y1="161.6" x2="194" y2="33.9"/>
	<line fill="none" stroke="#3E95E9" stroke-linejoin="round" stroke-miterlimit="10" x1="194" y1="33.9" x2="258.1" y2="97.7"/>
	<line fill="none" stroke="#3E95E9" stroke-linejoin="round" stroke-miterlimit="10" x1="194.1" y1="193.4" x2="242" y2="169.4"/>
	<g>
		<path fill="none" d="M258,2l64,31.9v47.7l15.9-7.9L386,97.6l0.4,47.9l15.5-8.1l32.1,16.3v31.8l-64,32l-64.2,16.1v-31.9
			L242,233.5l-48.1-24.2l0.2-15.8L66,257.3L2,225.4L66,97.7L258,2 M258,0c-0.3,0-0.6,0.1-0.9,0.2l-192,95.7
			c-0.4,0.2-0.7,0.5-0.9,0.9l-64,127.6c-0.2,0.5-0.3,1-0.1,1.5s0.5,0.9,1,1.2l64,31.9c0.3,0.1,0.6,0.2,0.9,0.2
			c0.3,0,0.6-0.1,0.9-0.2l125.2-62.3l-0.2,12.5c0,0.8,0.4,1.5,1.1,1.8l48.1,24.2c0.3,0.1,0.6,0.2,0.9,0.2c0.3,0,0.6-0.1,0.9-0.2
			l61-30.4v28.7c0,0.6,0.3,1.2,0.8,1.6c0.4,0.3,0.8,0.4,1.2,0.4c0.2,0,0.3,0,0.5-0.1l64.2-16.1c0.1,0,0.3-0.1,0.4-0.2l64-32
			c0.7-0.3,1.1-1,1.1-1.8v-31.8c0-0.8-0.4-1.4-1.1-1.8l-32.1-16.3c-0.3-0.1-0.6-0.2-0.9-0.2c-0.3,0-0.6,0.1-0.9,0.2l-12.6,6.6
			L388,97.5c0-0.8-0.4-1.4-1.1-1.8l-48.1-23.9c-0.3-0.1-0.6-0.2-0.9-0.2c-0.3,0-0.6,0.1-0.9,0.2l-13,6.5V33.9c0-0.8-0.4-1.5-1.1-1.8
			l-64-31.9C258.6,0.1,258.3,0,258,0L258,0z"/>
	</g>
</g>
</svg>
