<?xml version="1.0" encoding="utf-8"?>
<!-- Generator: Adobe Illustrator 18.0.0, SVG Export Plug-In . SVG Version: 6.00 Build 0)  -->
<!DOCTYPE svg PUBLIC "-//W3C//DTD SVG 1.1//EN" "http://www.w3.org/Graphics/SVG/1.1/DTD/svg11.dtd">
<svg version="1.1" id="Layer_1" xmlns="http://www.w3.org/2000/svg" xmlns:xlink="http://www.w3.org/1999/xlink" x="0px" y="0px"
	 width="388px" height="320px" viewBox="0 0 388 320" style="enable-background:new 0 0 388 320;" xml:space="preserve">
<style type="text/css">
	.st0{fill:none;stroke:#3E95E9;stroke-linejoin:round;stroke-miterlimit:10;}
	.st1{fill:#3E95E9;}
</style>
<g>
	<g>
		<g>
			<polygon class="st0" points="82,238.2 82,310 98,317.9 98,246.1 			"/>
			<polygon class="st0" points="130,230.2 130,302 98,317.9 98,246.1 			"/>
			<polyline class="st0" points="82,294.1 98,302 129.9,286.1 			"/>
			<line class="st0" x1="82" y1="246.1" x2="98" y2="254.1"/>
			<line class="st0" x1="98" y1="254.1" x2="130" y2="238.1"/>
			<line class="st0" x1="98" y1="286.1" x2="130" y2="238.1"/>
			<line class="st0" x1="98" y1="254.1" x2="130" y2="270.6"/>
			<line class="st0" x1="98" y1="286.1" x2="130" y2="271.1"/>
			<line class="st0" x1="98" y1="286.1" x2="82" y2="278.4"/>
			<line class="st0" x1="82" y1="262.4" x2="98" y2="270.1"/>
		</g>
		<g>
			<line class="st0" x1="226" y1="190.3" x2="258" y2="174.3"/>
			<polygon class="st0" points="226,182.3 226,254.1 258,238.2 258,166.9 			"/>
			<polygon class="st0" points="210,190.3 210,246.1 226,254.1 226,182.3 			"/>
			<polyline class="st0" points="210,230.2 226,238.2 258,222.2 			"/>
			<line class="st0" x1="226" y1="190.3" x2="218" y2="186.1"/>
			<line class="st0" x1="226" y1="222.2" x2="258" y2="174.3"/>
			<line class="st0" x1="226" y1="190.3" x2="258" y2="206.2"/>
			<line class="st0" x1="226" y1="222.2" x2="258" y2="206.2"/>
			<line class="st0" x1="210" y1="198.6" x2="226" y2="206.3"/>
			<line class="st0" x1="210" y1="214.1" x2="226" y2="222.2"/>
		</g>
		<g>
			<polygon class="st0" points="2,198.3 2,270.1 18,278 18,206.3 			"/>
			<polygon class="st0" points="50,262.1 50,222.2 18,206.3 18,278 			"/>
			<polyline class="st0" points="2.1,254.1 18,262.1 50,246.1 			"/>
			<line class="st0" x1="2.1" y1="206.2" x2="18" y2="214.2"/>
			<line class="st0" x1="18" y1="214.2" x2="26" y2="210.5"/>
			<line class="st0" x1="18" y1="246.2" x2="38" y2="216.2"/>
			<line class="st0" x1="18" y1="214.2" x2="50" y2="230.2"/>
			<line class="st0" x1="18" y1="246.2" x2="50" y2="230.2"/>
			<line class="st0" x1="2.1" y1="238.1" x2="18" y2="246.2"/>
			<line class="st0" x1="2.1" y1="222.3" x2="18" y2="230.2"/>
		</g>
		<g>
			<polygon class="st0" points="386,102.5 386,174.3 354,190.3 354.6,118.6 			"/>
			<polygon class="st0" points="338,182.3 338,126.5 354.6,118.2 354,190.3 			"/>
			<polyline class="st0" points="338,166.4 354,174.3 386,158.4 			"/>
			<line class="st0" x1="354.6" y1="126.8" x2="346.3" y2="122.6"/>
			<line class="st0" x1="354.6" y1="126.8" x2="386" y2="110.5"/>
			<line class="st0" x1="338" y1="150.4" x2="354.3" y2="158.5"/>
			<line class="st0" x1="338" y1="134.5" x2="354" y2="142.4"/>
			<line class="st0" x1="354.3" y1="158.5" x2="386" y2="142.4"/>
			<line class="st0" x1="354.3" y1="158.5" x2="386" y2="110.5"/>
			<line class="st0" x1="354.6" y1="126.8" x2="386" y2="142.4"/>
		</g>
	</g>
	<g>
		<polyline class="st0" points="386,93.9 98,237.5 2,189.6 		"/>
		<line class="st0" x1="321.3" y1="61.6" x2="360.6" y2="81.2"/>
		<line class="st0" x1="137.2" y1="122.2" x2="18.7" y2="181.3"/>
		<line class="st0" x1="269.2" y1="56.4" x2="177.6" y2="102.1"/>
		<path class="st0" d="M291.1,53.4"/>
		<path class="st0" d="M154,12.3C56.5,46.2,10,145.7,10,193.4l-8-3.8C2,141.8,48.5,42.3,146,8.4c34.1-11.9,75.8-6.2,107.5,9.3"/>
		<path class="st0" d="M280.4,46.2c-5.5-6.3-6-6.8-9.2-10.3"/>
		<path class="st0" d="M284.3,46.4C252.1,16.5,198.5,2.1,154,18.8C64.2,52.5,19.7,141.4,18,189.3l0,0l-8,4.1
			c0-47.8,46.5-147.2,144-181.2c49.4-17.2,112.7,1.1,142.1,35.3"/>
		<polyline class="st0" points="379.1,97.5 371.2,93.5 106.7,225.4 		"/>
		<line class="st0" x1="160.9" y1="118.2" x2="286.2" y2="55.8"/>
		<line class="st0" x1="18.5" y1="189" x2="127.7" y2="134.7"/>
		<path class="st0" d="M386,93.9c-28.5-35.6-93.5-55.1-144-37.6C144.5,90.2,98,189.7,98,237.5l-8-3.8c0-24.7,12.4-63.2,37.9-99.3
			c23.8-33.8,59-65.5,106.1-81.9c34.6-12,76.4-6.4,108.2,9.7"/>
		<path class="st0" d="M371.2,93.5c-4.7-5.3-8.1-9.2-11-12.4"/>
		<path class="st0" d="M98,237.5c0-47.8,46.5-147.2,144-181.2c50.5-17.6,115.5,2,144,37.6l-6.9,3.6C348.1,62.6,290,44.9,242,62.9
			c-89.8,33.7-134.3,122.9-136,170.8v-0.3L98,237.5z"/>
		<polygon class="st0" points="2,189.6 2,198.3 98,246.1 98,237.5 		"/>
		<polygon class="st0" points="386,93.9 386,102.5 98,246.1 98,237.5 		"/>
	</g>
	<g>
		<g>
			<line class="st0" x1="242" y1="165.7" x2="242" y2="62.9"/>
			<line class="st0" x1="242" y1="62.9" x2="209.3" y2="181.6"/>
			<line class="st0" x1="242" y1="62.9" x2="273.3" y2="150.1"/>
			<line class="st0" x1="274" y1="56" x2="274" y2="150.1"/>
			<line class="st0" x1="209.3" y1="78.6" x2="209.3" y2="181.6"/>
			<line class="st0" x1="177.5" y1="101.8" x2="209.3" y2="181.6"/>
			<line class="st0" x1="177.5" y1="101.8" x2="177.5" y2="197.8"/>
			<line class="st0" x1="146" y1="136" x2="177.5" y2="197.8"/>
			<line class="st0" x1="146" y1="136" x2="146" y2="213.6"/>
			<line class="st0" x1="274" y1="150.1" x2="298" y2="56.7"/>
			<line class="st0" x1="298" y1="56.7" x2="298" y2="137.8"/>
			<line class="st0" x1="298" y1="137.8" x2="323.4" y2="62.7"/>
			<line class="st0" x1="323.4" y1="62.7" x2="323.4" y2="125.1"/>
			<line class="st0" x1="323.4" y1="125.1" x2="355.9" y2="77.7"/>
			<line class="st0" x1="146" y1="213.6" x2="116.2" y2="189.3"/>
		</g>
		<g>
			<line class="st0" x1="162.1" y1="95.6" x2="162.1" y2="16.1"/>
			<line class="st0" x1="159.3" y1="17" x2="130.1" y2="125.5"/>
			<line class="st0" x1="192.4" y1="89.5" x2="194.1" y2="93.9"/>
			<line class="st0" x1="165.2" y1="15.3" x2="187.3" y2="75.5"/>
			<line class="st0" x1="194.1" y1="88.6" x2="194.1" y2="93.9"/>
			<line class="st0" x1="194.1" y1="11.7" x2="194.1" y2="71.5"/>
			<line class="st0" x1="129.3" y1="29.8" x2="129.3" y2="125.5"/>
			<line class="st0" x1="99.2" y1="49.7" x2="129.3" y2="126.1"/>
			<line class="st0" x1="97.6" y1="50.9" x2="97.6" y2="141.6"/>
			<line class="st0" x1="66.7" y1="81" x2="97.6" y2="141.6"/>
			<line class="st0" x1="66.1" y1="81.7" x2="66.1" y2="157.4"/>
			<line class="st0" x1="200.9" y1="67.5" x2="214.8" y2="13.3"/>
			<line class="st0" x1="194.1" y1="93.9" x2="195.7" y2="87.5"/>
			<line class="st0" x1="218.1" y1="73.3" x2="218.1" y2="81.6"/>
			<line class="st0" x1="218.1" y1="13.9" x2="218.1" y2="58.7"/>
			<line class="st0" x1="227.1" y1="54.8" x2="239.1" y2="19.4"/>
			<line class="st0" x1="218.1" y1="81.6" x2="221.4" y2="71.7"/>
			<line class="st0" x1="243.5" y1="21.1" x2="243.5" y2="49.5"/>
			<line class="st0" x1="258.5" y1="47" x2="267.5" y2="33.8"/>
			<line class="st0" x1="243.1" y1="69.4" x2="249.1" y2="60.7"/>
			<line class="st0" x1="66.1" y1="157.4" x2="34" y2="131.6"/>
		</g>
	</g>
	<g>
		<path class="st1" d="M185.2,2.3c39.8,0,84.5,16.2,110.8,45.1c49.3,10.9,74,25.4,90,47.2v79.8l-32,16l-16-8v-56.2l-80,40.8v71.3
			l-32,16l-16-8v-55.8l-80,39.9V302l-32,16l-16-8v-71.8l-32-16l0,39.9l-32,16l-16-8v-80.5C2,136.2,64.1,28.1,155.1,5.7
			C164.5,3.4,174.7,2.3,185.2,2.3 M185.2,0.3c-10.8,0-21.1,1.2-30.6,3.5c-41,10.1-80.7,38.9-111.8,81.1C16.8,120.1,0,161.2,0,189.6
			v80.5c0,0.8,0.4,1.5,1.1,1.8l16,8c0.3,0.1,0.6,0.2,0.9,0.2c0.3,0,0.6-0.1,0.9-0.2l32-16c0.7-0.3,1.1-1,1.1-1.8l0-36.7l28,14V310
			c0,0.8,0.4,1.5,1.1,1.8l16,8c0.3,0.1,0.6,0.2,0.9,0.2s0.6-0.1,0.9-0.2l32-16c0.7-0.3,1.1-1,1.1-1.8v-70.6l76-37.9v52.6
			c0,0.8,0.4,1.5,1.1,1.8l16,8c0.3,0.1,0.6,0.2,0.9,0.2c0.3,0,0.6-0.1,0.9-0.2l32-16c0.7-0.3,1.1-1,1.1-1.8v-70l76-38.7v52.9
			c0,0.8,0.4,1.5,1.1,1.8l16,8c0.3,0.1,0.6,0.2,0.9,0.2s0.6-0.1,0.9-0.2l32-16c0.7-0.3,1.1-1,1.1-1.8V94.6c0-0.4-0.1-0.8-0.4-1.2
			c-17.2-23.4-43.5-37.3-90.6-47.8C271.7,18,227.9,0.3,185.2,0.3L185.2,0.3z"/>
	</g>
</g>
</svg>
